<?xml version="1.0" encoding="UTF-8" standalone="no"?>
<svg
   xmlns:dc="http://purl.org/dc/elements/1.1/"
   xmlns:cc="http://creativecommons.org/ns#"
   xmlns:rdf="http://www.w3.org/1999/02/22-rdf-syntax-ns#"
   xmlns:svg="http://www.w3.org/2000/svg"
   xmlns="http://www.w3.org/2000/svg"
   viewBox="0 0 1216.72 223.49333"
   height="223.49333"
   width="1216.72"
   xml:space="preserve"
   id="svg2"
   version="1.1"><metadata
     id="metadata8"><rdf:RDF><cc:Work
         rdf:about=""><dc:format>image/svg+xml</dc:format><dc:type
           rdf:resource="http://purl.org/dc/dcmitype/StillImage" /></cc:Work></rdf:RDF></metadata><defs
     id="defs6"><clipPath
       id="clipPath52"
       clipPathUnits="userSpaceOnUse"><path
         id="path50"
         d="M 1002.89,388.98 C 886.992,205.891 645.141,147.68 458.777,260.238 274.555,371.5 212.246,608.75 315.27,795.59 c 0.066,0.117 0.097,0.246 0.16,0.363 1.347,2.465 2.808,4.895 4.218,7.34 1.188,2.047 2.278,4.121 3.504,6.156 0.102,0.172 0.215,0.332 0.321,0.504 0.121,0.203 0.23,0.41 0.351,0.613 1.582,2.618 3.188,5.207 4.817,7.77 0.453,0.711 1.011,1.324 1.48,2.023 0.234,0.368 0.465,0.731 0.699,1.09 1.211,1.856 2.36,3.77 3.598,5.598 3.57,5.301 7.285,10.453 11.074,15.531 0.219,0.289 0.422,0.594 0.641,0.883 9.519,12.687 19.633,24.738 30.367,36.019 0.102,-0.039 0.211,-0.058 0.313,-0.097 56.089,58.531 127.71,97.387 204.32,113.961 0.066,0.344 0.183,0.676 0.246,1.023 23.574,5.129 47.625,8.043 71.824,8.883 0.582,0.03 1.145,0.15 1.727,0.17 1.613,0.05 3.238,-0.07 4.851,-0.04 7.063,0.13 14.125,0.07 21.199,-0.17 1.625,-0.06 3.247,0.04 4.872,-0.04 0.601,-0.03 1.179,-0.17 1.777,-0.21 24.414,-1.25 48.84,-4.636 72.973,-10.476 0.066,-0.449 0.199,-0.882 0.269,-1.328 38.352,-9.386 75.934,-24.644 111.473,-46.105 34.5,-20.84 64.679,-46.137 90.347,-74.656 0.442,0.156 0.903,0.246 1.344,0.406 17.235,-19.246 32.27,-40.035 45.285,-61.871 0.43,-0.707 0.96,-1.332 1.39,-2.051 0.98,-1.668 1.86,-3.387 2.82,-5.07 1.33,-2.34 2.64,-4.688 3.92,-7.055 0.8,-1.484 1.68,-2.934 2.46,-4.43 0.38,-0.726 0.63,-1.5 1,-2.234 11.82,-22.836 21.53,-46.652 28.76,-71.203 -0.27,-0.215 -0.51,-0.473 -0.79,-0.688 22.61,-76.449 22.4,-159.379 -3.16,-237.679 0.08,-0.071 0.15,-0.149 0.23,-0.219 -1.01,-3.082 -2.21,-6.121 -3.31,-9.18 -0.04,-0.109 -0.08,-0.23 -0.12,-0.34 -2.11,-5.89 -4.34,-11.75 -6.74,-17.582 -0.39,-0.937 -0.8,-1.879 -1.2,-2.82 -2.2,-5.238 -4.47,-10.457 -6.92,-15.641 -0.66,-1.418 -1.4,-2.816 -2.08,-4.238 -2.3,-4.73 -4.62,-9.441 -7.12,-14.109 -1.21,-2.262 -2.42,-4.563 -3.68,-6.813 m 32.37,-251.508 c 11.6,57.789 34.13,112.918 65.85,162.602 1.88,2.937 3.72,5.93 5.54,8.918 0.3,0.48 0.6,0.949 0.89,1.43 0.16,0.25 0.31,0.492 0.47,0.75 3.12,5.16 6.14,10.371 9.06,15.601 28.39,50.867 66.76,95.609 111.72,132.668 33.28,27.43 54.81,68.691 55.68,115.191 0.88,47.192 -19.71,89.778 -52.78,118.45 -44.68,38.742 -81.05,86.215 -108.48,138.601 -3.99,7.625 -8.17,15.16 -12.54,22.598 -30.06,51.16 -50.09,107.664 -59.62,166.231 -6.96,42.74 -31.91,82.27 -71.889,106.41 -40.86,24.68 -88.625,27.97 -130.336,13.13 -55.176,-19.63 -113.942,-27.87 -172.461,-25.54 -8.055,0.32 -16.106,0.45 -24.149,0.41 -61.265,-0.36 -122.05,10.47 -179.406,32.01 -40.629,15.25 -87.426,13.2 -128.289,-9.62 -41.351,-23.11 -69.902,-61.25 -77.875,-104.44 -8.43,-45.68 -30.879,-119.122 -55.871,-159.329 L 210.34,873.383 C 180.496,821.156 136.902,768.301 90.0898,730.527 55.9922,703.02 33.918,661.148 33.1953,613.91 32.4766,566.93 53.0352,524.621 85.9492,496.09 126.453,460.98 160.598,419.359 188,373.398 c 4.121,-6.918 8.109,-13.918 11.926,-21.019 2.746,-5.117 5.582,-10.199 8.504,-15.231 4.168,-7.187 8.117,-14.5 11.925,-21.867 23.356,-45.203 39.856,-93.769 47.415,-144.133 6.546,-43.609 31.8,-84.0464 72.585,-108.4996 40.219,-24.1093 87.051,-27.5703 128.192,-13.4882 48.316,16.5312 99.019,25.2109 150.008,25.6992 8.117,0.0703 16.242,-0.0078 24.367,-0.3594 8.633,-0.3594 17.266,-0.5117 25.883,-0.4492 8.148,0.0508 16.289,-0.1406 24.418,-0.4805 50.996,-2.1289 101.492,-12.0312 149.218,-30.289 40.715,-15.5821 87.77,-13.7422 128.883,9.0468 40.876,22.6524 67.296,61.2499 75.826,103.7419 z" /></clipPath><clipPath
       id="clipPath58"
       clipPathUnits="userSpaceOnUse"><path
         id="path56"
         d="m 1319.91,590.289 c 5.94,63.43 -26.88,120.449 -79,148.649 -47.9,25.906 -88.7,63.164 -115.15,110.769 l -8.82,15.883 c -26.19,47.152 -35.68,101.047 -31.97,154.86 3.76,54.57 -22.89,107.97 -71.96,138.72 -68.326,42.81 -160.697,24.71 -206.928,-41.35 -51.176,-73.12 -31.516,-174.215 43.41,-220.593 7.606,-4.707 16.313,-8.18 25.067,-10.997 27.414,-8.82 50.402,-27.785 64.386,-52.96 l 65.725,-118.329 c 14.06,-25.308 17.45,-54.902 10.87,-83.101 -1.64,-7.031 -2.85,-14.238 -3.11,-21.32 -3.18,-87.661 67.49,-160.879 156.27,-159.719 77.73,1.019 143.96,62.09 151.21,139.488 z" /></clipPath><linearGradient
       id="linearGradient68"
       spreadMethod="pad"
       gradientTransform="matrix(384.723,-692.593,-692.593,-384.723,856.536,1163.04)"
       gradientUnits="userSpaceOnUse"
       y2="0"
       x2="1"
       y1="0"
       x1="0"><stop
         id="stop60"
         offset="0"
         style="stop-opacity:1;stop-color:#3da96c" /><stop
         id="stop62"
         offset="0.325123"
         style="stop-opacity:1;stop-color:#3da96c" /><stop
         id="stop64"
         offset="0.719212"
         style="stop-opacity:1;stop-color:#7cc931" /><stop
         id="stop66"
         offset="1"
         style="stop-opacity:1;stop-color:#83cb2d" /></linearGradient><clipPath
       id="clipPath78"
       clipPathUnits="userSpaceOnUse"><path
         id="path76"
         d="M 1002.89,388.98 C 886.992,205.891 645.141,147.68 458.777,260.238 274.555,371.5 212.246,608.75 315.27,795.59 c 0.066,0.117 0.097,0.246 0.16,0.363 1.347,2.465 2.808,4.895 4.218,7.34 1.188,2.047 2.278,4.121 3.504,6.156 0.102,0.172 0.215,0.332 0.321,0.504 0.121,0.203 0.23,0.41 0.351,0.613 1.582,2.618 3.188,5.207 4.817,7.77 0.453,0.711 1.011,1.324 1.48,2.023 0.234,0.368 0.465,0.731 0.699,1.09 1.211,1.856 2.36,3.77 3.598,5.598 3.57,5.301 7.285,10.453 11.074,15.531 0.219,0.289 0.422,0.594 0.641,0.883 9.519,12.687 19.633,24.738 30.367,36.019 0.102,-0.039 0.211,-0.058 0.313,-0.097 56.089,58.531 127.71,97.387 204.32,113.961 0.066,0.344 0.183,0.676 0.246,1.023 23.574,5.129 47.625,8.043 71.824,8.883 0.582,0.03 1.145,0.15 1.727,0.17 1.613,0.05 3.238,-0.07 4.851,-0.04 7.063,0.13 14.125,0.07 21.199,-0.17 1.625,-0.06 3.247,0.04 4.872,-0.04 0.601,-0.03 1.179,-0.17 1.777,-0.21 24.414,-1.25 48.84,-4.636 72.973,-10.476 0.066,-0.449 0.199,-0.882 0.269,-1.328 38.352,-9.386 75.934,-24.644 111.473,-46.105 34.5,-20.84 64.679,-46.137 90.347,-74.656 0.442,0.156 0.903,0.246 1.344,0.406 17.235,-19.246 32.27,-40.035 45.285,-61.871 0.43,-0.707 0.96,-1.332 1.39,-2.051 0.98,-1.668 1.86,-3.387 2.82,-5.07 1.33,-2.34 2.64,-4.688 3.92,-7.055 0.8,-1.484 1.68,-2.934 2.46,-4.43 0.38,-0.726 0.63,-1.5 1,-2.234 11.82,-22.836 21.53,-46.652 28.76,-71.203 -0.27,-0.215 -0.51,-0.473 -0.79,-0.688 22.61,-76.449 22.4,-159.379 -3.16,-237.679 0.08,-0.071 0.15,-0.149 0.23,-0.219 -1.01,-3.082 -2.21,-6.121 -3.31,-9.18 -0.04,-0.109 -0.08,-0.23 -0.12,-0.34 -2.11,-5.89 -4.34,-11.75 -6.74,-17.582 -0.39,-0.937 -0.8,-1.879 -1.2,-2.82 -2.2,-5.238 -4.47,-10.457 -6.92,-15.641 -0.66,-1.418 -1.4,-2.816 -2.08,-4.238 -2.3,-4.73 -4.62,-9.441 -7.12,-14.109 -1.21,-2.262 -2.42,-4.563 -3.68,-6.813 m 32.37,-251.508 c 11.6,57.789 34.13,112.918 65.85,162.602 1.88,2.937 3.72,5.93 5.54,8.918 0.3,0.48 0.6,0.949 0.89,1.43 0.16,0.25 0.31,0.492 0.47,0.75 3.12,5.16 6.14,10.371 9.06,15.601 28.39,50.867 66.76,95.609 111.72,132.668 33.28,27.43 54.81,68.691 55.68,115.191 0.88,47.192 -19.71,89.778 -52.78,118.45 -44.68,38.742 -81.05,86.215 -108.48,138.601 -3.99,7.625 -8.17,15.16 -12.54,22.598 -30.06,51.16 -50.09,107.664 -59.62,166.231 -6.96,42.74 -31.91,82.27 -71.889,106.41 -40.86,24.68 -88.625,27.97 -130.336,13.13 -55.176,-19.63 -113.942,-27.87 -172.461,-25.54 -8.055,0.32 -16.106,0.45 -24.149,0.41 -61.265,-0.36 -122.05,10.47 -179.406,32.01 -40.629,15.25 -87.426,13.2 -128.289,-9.62 -41.351,-23.11 -69.902,-61.25 -77.875,-104.44 -8.43,-45.68 -30.879,-119.122 -55.871,-159.329 L 210.34,873.383 C 180.496,821.156 136.902,768.301 90.0898,730.527 55.9922,703.02 33.918,661.148 33.1953,613.91 32.4766,566.93 53.0352,524.621 85.9492,496.09 126.453,460.98 160.598,419.359 188,373.398 c 4.121,-6.918 8.109,-13.918 11.926,-21.019 2.746,-5.117 5.582,-10.199 8.504,-15.231 4.168,-7.187 8.117,-14.5 11.925,-21.867 23.356,-45.203 39.856,-93.769 47.415,-144.133 6.546,-43.609 31.8,-84.0464 72.585,-108.4996 40.219,-24.1093 87.051,-27.5703 128.192,-13.4882 48.316,16.5312 99.019,25.2109 150.008,25.6992 8.117,0.0703 16.242,-0.0078 24.367,-0.3594 8.633,-0.3594 17.266,-0.5117 25.883,-0.4492 8.148,0.0508 16.289,-0.1406 24.418,-0.4805 50.996,-2.1289 101.492,-12.0312 149.218,-30.289 40.715,-15.5821 87.77,-13.7422 128.883,9.0468 40.876,22.6524 67.296,61.2499 75.826,103.7419 z" /></clipPath><clipPath
       id="clipPath84"
       clipPathUnits="userSpaceOnUse"><path
         id="path82"
         d="m 970.523,18.7188 c 58.337,25.6093 92.247,82.0002 91.577,141.2502 -0.6,54.461 12.15,108.222 40.93,154.453 l 9.6,15.418 c 28.5,45.801 71,80.269 119.84,103.148 49.54,23.223 83.28,72.442 86.33,130.274 4.25,80.519 -56.43,152.476 -136.63,160.812 -88.77,9.231 -167.6,-57.043 -171.76,-145.062 -0.42,-8.942 0.77,-18.242 2.56,-27.25 5.6,-28.25 0.19,-57.563 -15.032,-82.012 L 926.418,354.828 C 911.117,330.25 886.891,312.922 859.047,304.98 852.098,303 845.215,300.559 838.898,297.352 760.719,257.559 731.027,160.23 775.156,83.1797 813.797,15.7188 899.34,-12.5195 970.523,18.7188 Z" /></clipPath><linearGradient
       id="linearGradient94"
       spreadMethod="pad"
       gradientTransform="matrix(-418.636,-672.638,-672.638,418.636,1246.2,701.929)"
       gradientUnits="userSpaceOnUse"
       y2="0"
       x2="1"
       y1="0"
       x1="0"><stop
         id="stop86"
         offset="0"
         style="stop-opacity:1;stop-color:#3da96c" /><stop
         id="stop88"
         offset="0.325123"
         style="stop-opacity:1;stop-color:#3da96c" /><stop
         id="stop90"
         offset="0.719212"
         style="stop-opacity:1;stop-color:#7cc931" /><stop
         id="stop92"
         offset="1"
         style="stop-opacity:1;stop-color:#83cb2d" /></linearGradient><clipPath
       id="clipPath104"
       clipPathUnits="userSpaceOnUse"><path
         id="path102"
         d="M 1002.89,388.98 C 886.992,205.891 645.141,147.68 458.777,260.238 274.555,371.5 212.246,608.75 315.27,795.59 c 0.066,0.117 0.097,0.246 0.16,0.363 1.347,2.465 2.808,4.895 4.218,7.34 1.188,2.047 2.278,4.121 3.504,6.156 0.102,0.172 0.215,0.332 0.321,0.504 0.121,0.203 0.23,0.41 0.351,0.613 1.582,2.618 3.188,5.207 4.817,7.77 0.453,0.711 1.011,1.324 1.48,2.023 0.234,0.368 0.465,0.731 0.699,1.09 1.211,1.856 2.36,3.77 3.598,5.598 3.57,5.301 7.285,10.453 11.074,15.531 0.219,0.289 0.422,0.594 0.641,0.883 9.519,12.687 19.633,24.738 30.367,36.019 0.102,-0.039 0.211,-0.058 0.313,-0.097 56.089,58.531 127.71,97.387 204.32,113.961 0.066,0.344 0.183,0.676 0.246,1.023 23.574,5.129 47.625,8.043 71.824,8.883 0.582,0.03 1.145,0.15 1.727,0.17 1.613,0.05 3.238,-0.07 4.851,-0.04 7.063,0.13 14.125,0.07 21.199,-0.17 1.625,-0.06 3.247,0.04 4.872,-0.04 0.601,-0.03 1.179,-0.17 1.777,-0.21 24.414,-1.25 48.84,-4.636 72.973,-10.476 0.066,-0.449 0.199,-0.882 0.269,-1.328 38.352,-9.386 75.934,-24.644 111.473,-46.105 34.5,-20.84 64.679,-46.137 90.347,-74.656 0.442,0.156 0.903,0.246 1.344,0.406 17.235,-19.246 32.27,-40.035 45.285,-61.871 0.43,-0.707 0.96,-1.332 1.39,-2.051 0.98,-1.668 1.86,-3.387 2.82,-5.07 1.33,-2.34 2.64,-4.688 3.92,-7.055 0.8,-1.484 1.68,-2.934 2.46,-4.43 0.38,-0.726 0.63,-1.5 1,-2.234 11.82,-22.836 21.53,-46.652 28.76,-71.203 -0.27,-0.215 -0.51,-0.473 -0.79,-0.688 22.61,-76.449 22.4,-159.379 -3.16,-237.679 0.08,-0.071 0.15,-0.149 0.23,-0.219 -1.01,-3.082 -2.21,-6.121 -3.31,-9.18 -0.04,-0.109 -0.08,-0.23 -0.12,-0.34 -2.11,-5.89 -4.34,-11.75 -6.74,-17.582 -0.39,-0.937 -0.8,-1.879 -1.2,-2.82 -2.2,-5.238 -4.47,-10.457 -6.92,-15.641 -0.66,-1.418 -1.4,-2.816 -2.08,-4.238 -2.3,-4.73 -4.62,-9.441 -7.12,-14.109 -1.21,-2.262 -2.42,-4.563 -3.68,-6.813 m 32.37,-251.508 c 11.6,57.789 34.13,112.918 65.85,162.602 1.88,2.937 3.72,5.93 5.54,8.918 0.3,0.48 0.6,0.949 0.89,1.43 0.16,0.25 0.31,0.492 0.47,0.75 3.12,5.16 6.14,10.371 9.06,15.601 28.39,50.867 66.76,95.609 111.72,132.668 33.28,27.43 54.81,68.691 55.68,115.191 0.88,47.192 -19.71,89.778 -52.78,118.45 -44.68,38.742 -81.05,86.215 -108.48,138.601 -3.99,7.625 -8.17,15.16 -12.54,22.598 -30.06,51.16 -50.09,107.664 -59.62,166.231 -6.96,42.74 -31.91,82.27 -71.889,106.41 -40.86,24.68 -88.625,27.97 -130.336,13.13 -55.176,-19.63 -113.942,-27.87 -172.461,-25.54 -8.055,0.32 -16.106,0.45 -24.149,0.41 -61.265,-0.36 -122.05,10.47 -179.406,32.01 -40.629,15.25 -87.426,13.2 -128.289,-9.62 -41.351,-23.11 -69.902,-61.25 -77.875,-104.44 -8.43,-45.68 -30.879,-119.122 -55.871,-159.329 L 210.34,873.383 C 180.496,821.156 136.902,768.301 90.0898,730.527 55.9922,703.02 33.918,661.148 33.1953,613.91 32.4766,566.93 53.0352,524.621 85.9492,496.09 126.453,460.98 160.598,419.359 188,373.398 c 4.121,-6.918 8.109,-13.918 11.926,-21.019 2.746,-5.117 5.582,-10.199 8.504,-15.231 4.168,-7.187 8.117,-14.5 11.925,-21.867 23.356,-45.203 39.856,-93.769 47.415,-144.133 6.546,-43.609 31.8,-84.0464 72.585,-108.4996 40.219,-24.1093 87.051,-27.5703 128.192,-13.4882 48.316,16.5312 99.019,25.2109 150.008,25.6992 8.117,0.0703 16.242,-0.0078 24.367,-0.3594 8.633,-0.3594 17.266,-0.5117 25.883,-0.4492 8.148,0.0508 16.289,-0.1406 24.418,-0.4805 50.996,-2.1289 101.492,-12.0312 149.218,-30.289 40.715,-15.5821 87.77,-13.7422 128.883,9.0468 40.876,22.6524 67.296,61.2499 75.826,103.7419 z" /></clipPath><clipPath
       id="clipPath110"
       clipPathUnits="userSpaceOnUse"><path
         id="path108"
         d="M 301.211,46.6094 C 351.926,8.05078 417.68,5.78125 469.156,35.1406 c 47.309,26.9688 100.5,41.9297 154.887,39.2188 l 18.145,-0.8985 C 696.063,70.7813 746.832,50.3711 790.559,18.7813 834.906,-13.25 894.324,-18.8398 946.355,6.57031 1018.8,41.9609 1052.25,129.949 1020.59,204.102 985.551,286.191 889.34,322.91 810.371,283.809 802.355,279.84 794.805,274.281 787.789,268.34 765.816,249.73 737.566,240.23 708.805,241.66 l -135.192,6.719 c -28.918,1.441 -55.832,14.199 -76.293,34.691 -5.105,5.11 -10.582,9.942 -16.457,13.899 C 408.117,346 308.613,324.691 262.688,248.691 222.48,182.16 239.328,93.6602 301.211,46.6094 Z" /></clipPath><linearGradient
       id="linearGradient120"
       spreadMethod="pad"
       gradientTransform="matrix(-791.297,39.3361,39.3361,791.297,1032.33,137.37)"
       gradientUnits="userSpaceOnUse"
       y2="0"
       x2="1"
       y1="0"
       x1="0"><stop
         id="stop112"
         offset="0"
         style="stop-opacity:1;stop-color:#3da96c" /><stop
         id="stop114"
         offset="0.325123"
         style="stop-opacity:1;stop-color:#3da96c" /><stop
         id="stop116"
         offset="0.719212"
         style="stop-opacity:1;stop-color:#7cc931" /><stop
         id="stop118"
         offset="1"
         style="stop-opacity:1;stop-color:#83cb2d" /></linearGradient><clipPath
       id="clipPath130"
       clipPathUnits="userSpaceOnUse"><path
         id="path128"
         d="M 1002.89,388.98 C 886.992,205.891 645.141,147.68 458.777,260.238 274.555,371.5 212.246,608.75 315.27,795.59 c 0.066,0.117 0.097,0.246 0.16,0.363 1.347,2.465 2.808,4.895 4.218,7.34 1.188,2.047 2.278,4.121 3.504,6.156 0.102,0.172 0.215,0.332 0.321,0.504 0.121,0.203 0.23,0.41 0.351,0.613 1.582,2.618 3.188,5.207 4.817,7.77 0.453,0.711 1.011,1.324 1.48,2.023 0.234,0.368 0.465,0.731 0.699,1.09 1.211,1.856 2.36,3.77 3.598,5.598 3.57,5.301 7.285,10.453 11.074,15.531 0.219,0.289 0.422,0.594 0.641,0.883 9.519,12.687 19.633,24.738 30.367,36.019 0.102,-0.039 0.211,-0.058 0.313,-0.097 56.089,58.531 127.71,97.387 204.32,113.961 0.066,0.344 0.183,0.676 0.246,1.023 23.574,5.129 47.625,8.043 71.824,8.883 0.582,0.03 1.145,0.15 1.727,0.17 1.613,0.05 3.238,-0.07 4.851,-0.04 7.063,0.13 14.125,0.07 21.199,-0.17 1.625,-0.06 3.247,0.04 4.872,-0.04 0.601,-0.03 1.179,-0.17 1.777,-0.21 24.414,-1.25 48.84,-4.636 72.973,-10.476 0.066,-0.449 0.199,-0.882 0.269,-1.328 38.352,-9.386 75.934,-24.644 111.473,-46.105 34.5,-20.84 64.679,-46.137 90.347,-74.656 0.442,0.156 0.903,0.246 1.344,0.406 17.235,-19.246 32.27,-40.035 45.285,-61.871 0.43,-0.707 0.96,-1.332 1.39,-2.051 0.98,-1.668 1.86,-3.387 2.82,-5.07 1.33,-2.34 2.64,-4.688 3.92,-7.055 0.8,-1.484 1.68,-2.934 2.46,-4.43 0.38,-0.726 0.63,-1.5 1,-2.234 11.82,-22.836 21.53,-46.652 28.76,-71.203 -0.27,-0.215 -0.51,-0.473 -0.79,-0.688 22.61,-76.449 22.4,-159.379 -3.16,-237.679 0.08,-0.071 0.15,-0.149 0.23,-0.219 -1.01,-3.082 -2.21,-6.121 -3.31,-9.18 -0.04,-0.109 -0.08,-0.23 -0.12,-0.34 -2.11,-5.89 -4.34,-11.75 -6.74,-17.582 -0.39,-0.937 -0.8,-1.879 -1.2,-2.82 -2.2,-5.238 -4.47,-10.457 -6.92,-15.641 -0.66,-1.418 -1.4,-2.816 -2.08,-4.238 -2.3,-4.73 -4.62,-9.441 -7.12,-14.109 -1.21,-2.262 -2.42,-4.563 -3.68,-6.813 m 32.37,-251.508 c 11.6,57.789 34.13,112.918 65.85,162.602 1.88,2.937 3.72,5.93 5.54,8.918 0.3,0.48 0.6,0.949 0.89,1.43 0.16,0.25 0.31,0.492 0.47,0.75 3.12,5.16 6.14,10.371 9.06,15.601 28.39,50.867 66.76,95.609 111.72,132.668 33.28,27.43 54.81,68.691 55.68,115.191 0.88,47.192 -19.71,89.778 -52.78,118.45 -44.68,38.742 -81.05,86.215 -108.48,138.601 -3.99,7.625 -8.17,15.16 -12.54,22.598 -30.06,51.16 -50.09,107.664 -59.62,166.231 -6.96,42.74 -31.91,82.27 -71.889,106.41 -40.86,24.68 -88.625,27.97 -130.336,13.13 -55.176,-19.63 -113.942,-27.87 -172.461,-25.54 -8.055,0.32 -16.106,0.45 -24.149,0.41 -61.265,-0.36 -122.05,10.47 -179.406,32.01 -40.629,15.25 -87.426,13.2 -128.289,-9.62 -41.351,-23.11 -69.902,-61.25 -77.875,-104.44 -8.43,-45.68 -30.879,-119.122 -55.871,-159.329 L 210.34,873.383 C 180.496,821.156 136.902,768.301 90.0898,730.527 55.9922,703.02 33.918,661.148 33.1953,613.91 32.4766,566.93 53.0352,524.621 85.9492,496.09 126.453,460.98 160.598,419.359 188,373.398 c 4.121,-6.918 8.109,-13.918 11.926,-21.019 2.746,-5.117 5.582,-10.199 8.504,-15.231 4.168,-7.187 8.117,-14.5 11.925,-21.867 23.356,-45.203 39.856,-93.769 47.415,-144.133 6.546,-43.609 31.8,-84.0464 72.585,-108.4996 40.219,-24.1093 87.051,-27.5703 128.192,-13.4882 48.316,16.5312 99.019,25.2109 150.008,25.6992 8.117,0.0703 16.242,-0.0078 24.367,-0.3594 8.633,-0.3594 17.266,-0.5117 25.883,-0.4492 8.148,0.0508 16.289,-0.1406 24.418,-0.4805 50.996,-2.1289 101.492,-12.0312 149.218,-30.289 40.715,-15.5821 87.77,-13.7422 128.883,9.0468 40.876,22.6524 67.296,61.2499 75.826,103.7419 z" /></clipPath><clipPath
       id="clipPath136"
       clipPathUnits="userSpaceOnUse"><path
         id="path134"
         d="M 0.574219,645.25 C -8.50781,582.191 21.4414,523.609 72.1016,492.871 118.652,464.609 157.555,425.371 181.602,376.512 l 8.023,-16.301 c 23.82,-48.391 30.621,-102.691 24.246,-156.25 -6.465,-54.32 17.496,-108.9805 64.981,-142.1212 66.117,-46.1484 159.269,-32.6601 208.726,31.0196 54.742,70.4926 40.125,172.4296 -32.402,222.4806 -7.363,5.082 -15.891,8.98 -24.488,12.219 -26.946,10.171 -48.965,30.261 -61.68,56.101 l -59.774,121.442 c -12.785,25.976 -14.699,55.699 -6.722,83.539 1.988,6.937 3.554,14.078 4.16,21.14 7.531,87.395 -59.414,164.032 -148.149,167.278 C 80.8398,779.902 11.6563,722.199 0.574219,645.25 Z" /></clipPath><linearGradient
       id="linearGradient146"
       spreadMethod="pad"
       gradientTransform="matrix(-349.862,710.841,710.841,349.862,434.941,50.2)"
       gradientUnits="userSpaceOnUse"
       y2="0"
       x2="1"
       y1="0"
       x1="0"><stop
         id="stop138"
         offset="0"
         style="stop-opacity:1;stop-color:#3da96c" /><stop
         id="stop140"
         offset="0.325123"
         style="stop-opacity:1;stop-color:#3da96c" /><stop
         id="stop142"
         offset="0.719212"
         style="stop-opacity:1;stop-color:#7cc931" /><stop
         id="stop144"
         offset="1"
         style="stop-opacity:1;stop-color:#83cb2d" /></linearGradient><clipPath
       id="clipPath156"
       clipPathUnits="userSpaceOnUse"><path
         id="path154"
         d="M 1002.89,388.98 C 886.992,205.891 645.141,147.68 458.777,260.238 274.555,371.5 212.246,608.75 315.27,795.59 c 0.066,0.117 0.097,0.246 0.16,0.363 1.347,2.465 2.808,4.895 4.218,7.34 1.188,2.047 2.278,4.121 3.504,6.156 0.102,0.172 0.215,0.332 0.321,0.504 0.121,0.203 0.23,0.41 0.351,0.613 1.582,2.618 3.188,5.207 4.817,7.77 0.453,0.711 1.011,1.324 1.48,2.023 0.234,0.368 0.465,0.731 0.699,1.09 1.211,1.856 2.36,3.77 3.598,5.598 3.57,5.301 7.285,10.453 11.074,15.531 0.219,0.289 0.422,0.594 0.641,0.883 9.519,12.687 19.633,24.738 30.367,36.019 0.102,-0.039 0.211,-0.058 0.313,-0.097 56.089,58.531 127.71,97.387 204.32,113.961 0.066,0.344 0.183,0.676 0.246,1.023 23.574,5.129 47.625,8.043 71.824,8.883 0.582,0.03 1.145,0.15 1.727,0.17 1.613,0.05 3.238,-0.07 4.851,-0.04 7.063,0.13 14.125,0.07 21.199,-0.17 1.625,-0.06 3.247,0.04 4.872,-0.04 0.601,-0.03 1.179,-0.17 1.777,-0.21 24.414,-1.25 48.84,-4.636 72.973,-10.476 0.066,-0.449 0.199,-0.882 0.269,-1.328 38.352,-9.386 75.934,-24.644 111.473,-46.105 34.5,-20.84 64.679,-46.137 90.347,-74.656 0.442,0.156 0.903,0.246 1.344,0.406 17.235,-19.246 32.27,-40.035 45.285,-61.871 0.43,-0.707 0.96,-1.332 1.39,-2.051 0.98,-1.668 1.86,-3.387 2.82,-5.07 1.33,-2.34 2.64,-4.688 3.92,-7.055 0.8,-1.484 1.68,-2.934 2.46,-4.43 0.38,-0.726 0.63,-1.5 1,-2.234 11.82,-22.836 21.53,-46.652 28.76,-71.203 -0.27,-0.215 -0.51,-0.473 -0.79,-0.688 22.61,-76.449 22.4,-159.379 -3.16,-237.679 0.08,-0.071 0.15,-0.149 0.23,-0.219 -1.01,-3.082 -2.21,-6.121 -3.31,-9.18 -0.04,-0.109 -0.08,-0.23 -0.12,-0.34 -2.11,-5.89 -4.34,-11.75 -6.74,-17.582 -0.39,-0.937 -0.8,-1.879 -1.2,-2.82 -2.2,-5.238 -4.47,-10.457 -6.92,-15.641 -0.66,-1.418 -1.4,-2.816 -2.08,-4.238 -2.3,-4.73 -4.62,-9.441 -7.12,-14.109 -1.21,-2.262 -2.42,-4.563 -3.68,-6.813 m 32.37,-251.508 c 11.6,57.789 34.13,112.918 65.85,162.602 1.88,2.937 3.72,5.93 5.54,8.918 0.3,0.48 0.6,0.949 0.89,1.43 0.16,0.25 0.31,0.492 0.47,0.75 3.12,5.16 6.14,10.371 9.06,15.601 28.39,50.867 66.76,95.609 111.72,132.668 33.28,27.43 54.81,68.691 55.68,115.191 0.88,47.192 -19.71,89.778 -52.78,118.45 -44.68,38.742 -81.05,86.215 -108.48,138.601 -3.99,7.625 -8.17,15.16 -12.54,22.598 -30.06,51.16 -50.09,107.664 -59.62,166.231 -6.96,42.74 -31.91,82.27 -71.889,106.41 -40.86,24.68 -88.625,27.97 -130.336,13.13 -55.176,-19.63 -113.942,-27.87 -172.461,-25.54 -8.055,0.32 -16.106,0.45 -24.149,0.41 -61.265,-0.36 -122.05,10.47 -179.406,32.01 -40.629,15.25 -87.426,13.2 -128.289,-9.62 -41.351,-23.11 -69.902,-61.25 -77.875,-104.44 -8.43,-45.68 -30.879,-119.122 -55.871,-159.329 L 210.34,873.383 C 180.496,821.156 136.902,768.301 90.0898,730.527 55.9922,703.02 33.918,661.148 33.1953,613.91 32.4766,566.93 53.0352,524.621 85.9492,496.09 126.453,460.98 160.598,419.359 188,373.398 c 4.121,-6.918 8.109,-13.918 11.926,-21.019 2.746,-5.117 5.582,-10.199 8.504,-15.231 4.168,-7.187 8.117,-14.5 11.925,-21.867 23.356,-45.203 39.856,-93.769 47.415,-144.133 6.546,-43.609 31.8,-84.0464 72.585,-108.4996 40.219,-24.1093 87.051,-27.5703 128.192,-13.4882 48.316,16.5312 99.019,25.2109 150.008,25.6992 8.117,0.0703 16.242,-0.0078 24.367,-0.3594 8.633,-0.3594 17.266,-0.5117 25.883,-0.4492 8.148,0.0508 16.289,-0.1406 24.418,-0.4805 50.996,-2.1289 101.492,-12.0312 149.218,-30.289 40.715,-15.5821 87.77,-13.7422 128.883,9.0468 40.876,22.6524 67.296,61.2499 75.826,103.7419 z" /></clipPath><clipPath
       id="clipPath162"
       clipPathUnits="userSpaceOnUse"><path
         id="path160"
         d="m 377.91,1198.76 c -59.535,-22.68 -96.203,-77.31 -98.48,-136.52 -2.098,-54.42 -17.504,-107.478 -48.539,-152.228 l -10.356,-14.93 C 189.797,850.762 145.633,818.445 95.7148,798.012 45.0898,777.285 8.94141,729.797 3.02734,672.191 -5.21094,591.98 51.8164,517.102 131.504,504.789 c 88.203,-13.617 170.223,48.66 178.75,136.359 0.863,8.903 0.137,18.25 -1.203,27.352 -4.192,28.488 2.672,57.488 19.086,81.156 l 77.136,111.223 c 16.5,23.793 41.563,39.898 69.766,46.445 7.035,1.629 14.031,3.727 20.5,6.625 80.059,35.856 114.547,131.591 74.293,210.741 -35.238,69.29 -119.277,101.75 -191.922,74.07 z" /></clipPath><linearGradient
       id="linearGradient172"
       spreadMethod="pad"
       gradientTransform="matrix(451.516,651.023,651.023,-451.516,68.6477,530.09)"
       gradientUnits="userSpaceOnUse"
       y2="0"
       x2="1"
       y1="0"
       x1="0"><stop
         id="stop164"
         offset="0"
         style="stop-opacity:1;stop-color:#3da96c" /><stop
         id="stop166"
         offset="0.325123"
         style="stop-opacity:1;stop-color:#3da96c" /><stop
         id="stop168"
         offset="0.719212"
         style="stop-opacity:1;stop-color:#7cc931" /><stop
         id="stop170"
         offset="1"
         style="stop-opacity:1;stop-color:#83cb2d" /></linearGradient><clipPath
       id="clipPath182"
       clipPathUnits="userSpaceOnUse"><path
         id="path180"
         d="M 1002.89,388.98 C 886.992,205.891 645.141,147.68 458.777,260.238 274.555,371.5 212.246,608.75 315.27,795.59 c 0.066,0.117 0.097,0.246 0.16,0.363 1.347,2.465 2.808,4.895 4.218,7.34 1.188,2.047 2.278,4.121 3.504,6.156 0.102,0.172 0.215,0.332 0.321,0.504 0.121,0.203 0.23,0.41 0.351,0.613 1.582,2.618 3.188,5.207 4.817,7.77 0.453,0.711 1.011,1.324 1.48,2.023 0.234,0.368 0.465,0.731 0.699,1.09 1.211,1.856 2.36,3.77 3.598,5.598 3.57,5.301 7.285,10.453 11.074,15.531 0.219,0.289 0.422,0.594 0.641,0.883 9.519,12.687 19.633,24.738 30.367,36.019 0.102,-0.039 0.211,-0.058 0.313,-0.097 56.089,58.531 127.71,97.387 204.32,113.961 0.066,0.344 0.183,0.676 0.246,1.023 23.574,5.129 47.625,8.043 71.824,8.883 0.582,0.03 1.145,0.15 1.727,0.17 1.613,0.05 3.238,-0.07 4.851,-0.04 7.063,0.13 14.125,0.07 21.199,-0.17 1.625,-0.06 3.247,0.04 4.872,-0.04 0.601,-0.03 1.179,-0.17 1.777,-0.21 24.414,-1.25 48.84,-4.636 72.973,-10.476 0.066,-0.449 0.199,-0.882 0.269,-1.328 38.352,-9.386 75.934,-24.644 111.473,-46.105 34.5,-20.84 64.679,-46.137 90.347,-74.656 0.442,0.156 0.903,0.246 1.344,0.406 17.235,-19.246 32.27,-40.035 45.285,-61.871 0.43,-0.707 0.96,-1.332 1.39,-2.051 0.98,-1.668 1.86,-3.387 2.82,-5.07 1.33,-2.34 2.64,-4.688 3.92,-7.055 0.8,-1.484 1.68,-2.934 2.46,-4.43 0.38,-0.726 0.63,-1.5 1,-2.234 11.82,-22.836 21.53,-46.652 28.76,-71.203 -0.27,-0.215 -0.51,-0.473 -0.79,-0.688 22.61,-76.449 22.4,-159.379 -3.16,-237.679 0.08,-0.071 0.15,-0.149 0.23,-0.219 -1.01,-3.082 -2.21,-6.121 -3.31,-9.18 -0.04,-0.109 -0.08,-0.23 -0.12,-0.34 -2.11,-5.89 -4.34,-11.75 -6.74,-17.582 -0.39,-0.937 -0.8,-1.879 -1.2,-2.82 -2.2,-5.238 -4.47,-10.457 -6.92,-15.641 -0.66,-1.418 -1.4,-2.816 -2.08,-4.238 -2.3,-4.73 -4.62,-9.441 -7.12,-14.109 -1.21,-2.262 -2.42,-4.563 -3.68,-6.813 m 32.37,-251.508 c 11.6,57.789 34.13,112.918 65.85,162.602 1.88,2.937 3.72,5.93 5.54,8.918 0.3,0.48 0.6,0.949 0.89,1.43 0.16,0.25 0.31,0.492 0.47,0.75 3.12,5.16 6.14,10.371 9.06,15.601 28.39,50.867 66.76,95.609 111.72,132.668 33.28,27.43 54.81,68.691 55.68,115.191 0.88,47.192 -19.71,89.778 -52.78,118.45 -44.68,38.742 -81.05,86.215 -108.48,138.601 -3.99,7.625 -8.17,15.16 -12.54,22.598 -30.06,51.16 -50.09,107.664 -59.62,166.231 -6.96,42.74 -31.91,82.27 -71.889,106.41 -40.86,24.68 -88.625,27.97 -130.336,13.13 -55.176,-19.63 -113.942,-27.87 -172.461,-25.54 -8.055,0.32 -16.106,0.45 -24.149,0.41 -61.265,-0.36 -122.05,10.47 -179.406,32.01 -40.629,15.25 -87.426,13.2 -128.289,-9.62 -41.351,-23.11 -69.902,-61.25 -77.875,-104.44 -8.43,-45.68 -30.879,-119.122 -55.871,-159.329 L 210.34,873.383 C 180.496,821.156 136.902,768.301 90.0898,730.527 55.9922,703.02 33.918,661.148 33.1953,613.91 32.4766,566.93 53.0352,524.621 85.9492,496.09 126.453,460.98 160.598,419.359 188,373.398 c 4.121,-6.918 8.109,-13.918 11.926,-21.019 2.746,-5.117 5.582,-10.199 8.504,-15.231 4.168,-7.187 8.117,-14.5 11.925,-21.867 23.356,-45.203 39.856,-93.769 47.415,-144.133 6.546,-43.609 31.8,-84.0464 72.585,-108.4996 40.219,-24.1093 87.051,-27.5703 128.192,-13.4882 48.316,16.5312 99.019,25.2109 150.008,25.6992 8.117,0.0703 16.242,-0.0078 24.367,-0.3594 8.633,-0.3594 17.266,-0.5117 25.883,-0.4492 8.148,0.0508 16.289,-0.1406 24.418,-0.4805 50.996,-2.1289 101.492,-12.0312 149.218,-30.289 40.715,-15.5821 87.77,-13.7422 128.883,9.0468 40.876,22.6524 67.296,61.2499 75.826,103.7419 z" /></clipPath><clipPath
       id="clipPath188"
       clipPathUnits="userSpaceOnUse"><path
         id="path186"
         d="m 989.926,1173.27 c -52.571,35.99 -118.356,34.99 -168.313,3.11 -45.91,-29.29 -98.293,-46.86 -152.746,-46.86 h -18.168 c -53.941,0 -105.664,17.87 -150.902,47.24 -45.883,29.79 -105.504,32.43 -156.207,4.46 -70.606,-38.94 -99.637,-128.48 -64.34,-200.974 39.074,-80.242 136.988,-112.144 213.918,-69.168 7.809,4.363 15.074,10.289 21.785,16.57 21.024,19.684 48.766,30.571 77.567,30.571 h 135.355 c 28.953,0 56.469,-11.41 77.922,-30.856 5.351,-4.851 11.058,-9.406 17.125,-13.07 75.09,-45.352 173.414,-19.129 215.508,59.051 36.86,68.446 15.64,155.996 -48.504,199.926 z" /></clipPath><linearGradient
       id="linearGradient198"
       spreadMethod="pad"
       gradientTransform="matrix(792.274,0,0,-792.274,264.216,1046.31)"
       gradientUnits="userSpaceOnUse"
       y2="0"
       x2="1"
       y1="0"
       x1="0"><stop
         id="stop190"
         offset="0"
         style="stop-opacity:1;stop-color:#3da96c" /><stop
         id="stop192"
         offset="0.325123"
         style="stop-opacity:1;stop-color:#3da96c" /><stop
         id="stop194"
         offset="0.719212"
         style="stop-opacity:1;stop-color:#7cc931" /><stop
         id="stop196"
         offset="1"
         style="stop-opacity:1;stop-color:#83cb2d" /></linearGradient></defs><g
     transform="matrix(1.3333333,0,0,-1.3333333,0,223.49333)"
     id="g10"><g
       transform="scale(0.1)"
       id="g12"><path
         id="path14"
         style="fill:#ffffff;fill-opacity:1;fill-rule:nonzero;stroke:none"
         d="m 1703.65,690.434 c -76.97,0 -137.73,-25.633 -182.28,-76.883 -44.55,-51.262 -66.82,-121.442 -66.82,-210.539 0,-91.66 21.47,-162.473 64.43,-212.453 42.95,-49.981 104.19,-74.969 183.71,-74.969 48.86,0 104.59,8.781 167.18,26.351 V 70.5586 c -48.55,-18.1992 -108.42,-27.2969 -179.64,-27.2969 -103.15,0 -182.75,31.2891 -238.79,93.8863 -56.05,62.59 -84.08,151.532 -84.08,266.821 0,72.172 13.49,135.402 40.48,189.703 26.98,54.289 65.94,96.113 116.89,125.5 50.93,29.379 110.9,44.07 179.87,44.07 73.45,0 137.64,-13.41 192.57,-40.238 l -34.48,-69.934 c -53.02,24.907 -106.03,37.364 -159.04,37.364" /><path
         id="path16"
         style="fill:#ffffff;fill-opacity:1;fill-rule:nonzero;stroke:none"
         d="m 2056.03,315.832 c 0,-67.07 13.41,-118.172 40.24,-153.293 26.82,-35.141 66.26,-52.687 118.32,-52.687 52.05,0 91.57,17.476 118.56,52.449 26.98,34.969 40.48,86.14 40.48,153.531 0,66.738 -13.5,117.43 -40.48,152.09 -26.99,34.648 -66.83,51.969 -119.52,51.969 -52.06,0 -91.34,-17.082 -117.84,-51.25 -26.51,-34.172 -39.76,-85.11 -39.76,-152.809 z m 399.99,0 c 0,-85.594 -21.56,-152.41 -64.67,-200.48 -43.11,-48.0629 -102.68,-72.0903 -178.68,-72.0903 -46.94,0 -88.62,11.0078 -125.03,33.0469 -36.4,22.043 -64.51,53.6524 -84.3,94.8514 -19.81,41.199 -29.71,89.41 -29.71,144.672 0,85.578 21.39,152.246 64.19,199.988 42.8,47.739 102.2,71.621 178.21,71.621 73.44,0 131.8,-24.429 175.08,-73.293 43.27,-48.859 64.91,-114.968 64.91,-198.316" /><path
         id="path18"
         style="fill:#ffffff;fill-opacity:1;fill-rule:nonzero;stroke:none"
         d="M 2946.85,52.8398 V 392.469 c 0,42.801 -9.75,74.73 -29.22,95.812 -19.49,21.078 -49.99,31.61 -91.5,31.61 -54.93,0 -95.17,-14.84 -120.71,-44.551 -25.56,-29.692 -38.33,-78.719 -38.33,-147.059 V 52.8398 h -79.52 V 577.859 h 64.67 L 2665.18,506 h 3.83 c 16.28,25.871 39.12,45.91 68.5,60.121 29.38,14.207 62.11,21.32 98.2,21.32 63.23,0 110.81,-15.261 142.75,-45.75 31.93,-30.5 47.91,-79.281 47.91,-146.339 V 52.8398 h -79.52" /><path
         id="path20"
         style="fill:#ffffff;fill-opacity:1;fill-rule:nonzero;stroke:none"
         d="M 3541.14,52.8398 V 392.469 c 0,42.801 -9.74,74.73 -29.22,95.812 -19.48,21.078 -49.98,31.61 -91.49,31.61 -54.94,0 -95.17,-14.84 -120.72,-44.551 -25.55,-29.692 -38.32,-78.719 -38.32,-147.059 V 52.8398 h -79.52 V 577.859 h 64.67 L 3259.47,506 h 3.84 c 16.28,25.871 39.11,45.91 68.5,60.121 29.37,14.207 62.11,21.32 98.2,21.32 63.23,0 110.81,-15.261 142.75,-45.75 31.93,-30.5 47.9,-79.281 47.9,-146.339 V 52.8398 h -79.52" /><path
         id="path22"
         style="fill:#ffffff;fill-opacity:1;fill-rule:nonzero;stroke:none"
         d="m 3976.4,520.852 c -42.15,0 -75.77,-13.731 -100.83,-41.192 -25.08,-27.469 -39.85,-65.469 -44.31,-114.012 h 274.48 c 0,50.133 -11.18,88.543 -33.53,115.211 -22.36,26.661 -54.3,39.993 -95.81,39.993 z m 21.56,-477.5903 c -77.6,0 -138.85,23.6289 -183.71,70.8983 -44.87,47.25 -67.31,112.879 -67.31,196.879 0,84.621 20.84,151.852 62.52,201.672 41.67,49.82 97.64,74.73 167.9,74.73 65.78,0 117.84,-21.64 156.17,-64.91 38.32,-43.269 57.48,-100.359 57.48,-171.25 V 300.98 h -361.67 c 1.59,-61.64 17.16,-108.429 46.71,-140.359 29.53,-31.941 71.13,-47.902 124.78,-47.902 56.53,0 112.41,11.812 167.66,35.453 V 77.2695 c -28.1,-12.1406 -54.69,-20.8398 -79.75,-26.1093 -25.08,-5.2696 -55.33,-7.8985 -90.78,-7.8985" /><path
         id="path24"
         style="fill:#ffffff;fill-opacity:1;fill-rule:nonzero;stroke:none"
         d="m 4528.54,43.2617 c -76.01,0 -134.85,23.3867 -176.52,70.1683 -41.68,46.789 -62.52,112.98 -62.52,198.558 0,87.832 21.15,155.692 63.47,203.59 42.32,47.91 102.59,71.863 180.84,71.863 25.22,0 50.46,-2.722 75.69,-8.152 25.22,-5.43 45.03,-11.809 59.4,-19.16 l -24.43,-67.539 c -17.57,7.019 -36.73,12.851 -57.49,17.488 -20.76,4.621 -39.12,6.942 -55.09,6.942 -106.67,0 -160,-68.02 -160,-204.059 0,-64.52 13.02,-114.02 39.05,-148.5 26.02,-34.5 64.58,-51.742 115.69,-51.742 43.74,0 88.61,9.422 134.6,28.261 V 70.5586 C 4626.1,52.3594 4581.87,43.2617 4528.54,43.2617" /><path
         id="path26"
         style="fill:#ffffff;fill-opacity:1;fill-rule:nonzero;stroke:none"
         d="m 4947.51,108.879 c 14.05,0 27.62,1.043 40.72,3.121 13.09,2.07 23.47,4.23 31.14,6.469 V 57.6289 c -8.63,-4.1601 -21.32,-7.5781 -38.09,-10.3008 -16.76,-2.707 -31.85,-4.0664 -45.26,-4.0664 -101.56,0 -152.34,53.4883 -152.34,160.4683 v 312.329 h -75.21 v 38.332 l 75.21,33.05 33.53,112.09 h 45.99 V 577.859 h 152.33 v -61.8 H 4863.2 V 207.09 c 0,-31.621 7.5,-55.891 22.51,-72.82 15.01,-16.918 35.61,-25.391 61.8,-25.391" /><path
         id="path28"
         style="fill:#ffffff;fill-opacity:1;fill-rule:nonzero;stroke:none"
         d="m 5316.66,520.852 c -42.16,0 -75.77,-13.731 -100.83,-41.192 -25.08,-27.469 -39.85,-65.469 -44.32,-114.012 H 5446 c 0,50.133 -11.18,88.543 -33.54,115.211 -22.35,26.661 -54.3,39.993 -95.8,39.993 z m 21.55,-477.5903 c -77.59,0 -138.84,23.6289 -183.7,70.8983 -44.88,47.25 -67.31,112.879 -67.31,196.879 0,84.621 20.84,151.852 62.52,201.672 41.67,49.82 97.64,74.73 167.9,74.73 65.78,0 117.84,-21.64 156.16,-64.91 38.32,-43.269 57.48,-100.359 57.48,-171.25 V 300.98 H 5169.6 c 1.59,-61.64 17.16,-108.429 46.7,-140.359 29.54,-31.941 71.13,-47.902 124.78,-47.902 56.54,0 112.42,11.812 167.67,35.453 V 77.2695 c -28.1,-12.1406 -54.7,-20.8398 -79.76,-26.1093 -25.07,-5.2696 -55.33,-7.8985 -90.78,-7.8985" /><path
         id="path30"
         style="fill:#ffffff;fill-opacity:1;fill-rule:nonzero;stroke:none"
         d="m 5857.3,109.852 c 54.29,0 93.65,14.757 118.08,44.296 24.44,29.543 36.65,77.204 36.65,143 v 16.762 c 0,74.41 -12.38,127.5 -37.13,159.281 -24.75,31.77 -64.27,47.661 -118.56,47.661 -46.63,0 -82.32,-18.122 -107.06,-54.372 -24.76,-36.242 -37.13,-87.421 -37.13,-153.519 0,-67.07 12.29,-117.691 36.89,-151.859 24.58,-34.172 60.67,-51.25 108.26,-51.25 z m 159.04,13.41 h -4.31 c -36.73,-53.3401 -91.66,-80.0003 -164.79,-80.0003 -68.67,0 -122.07,23.4688 -160.24,70.4103 -38.16,46.949 -57.24,113.699 -57.24,200.238 0,86.539 19.16,153.77 57.49,201.668 38.32,47.91 91.65,71.863 159.99,71.863 71.21,0 125.82,-25.871 163.83,-77.601 h 6.23 l -3.35,37.84 -1.92,36.89 v 213.645 h 79.51 V 52.8398 h -64.66 l -10.54,70.4222" /><path
         id="path32"
         style="fill:#83cb2e;fill-opacity:1;fill-rule:nonzero;stroke:none"
         d="M 6247.08,52.8711 H 6091.54 V 798.449 H 6518.9 V 668.922 H 6247.08 V 476.648 h 252.95 V 347.629 H 6247.08 V 52.8711" /><path
         id="path34"
         style="fill:#83cb2e;fill-opacity:1;fill-rule:nonzero;stroke:none"
         d="m 6822.84,467.48 h 51.01 c 49.98,0 86.86,8.329 110.66,24.989 23.79,16.652 35.69,42.832 35.69,78.531 0,35.359 -12.16,60.512 -36.45,75.48 -24.32,14.961 -61.96,22.442 -112.97,22.442 h -47.94 z m 0,-128.519 V 52.8711 H 6664.76 V 798.449 H 6882 c 101.31,0 176.28,-18.449 224.9,-55.332 48.62,-36.894 72.93,-92.906 72.93,-168.039 0,-43.859 -12.07,-82.867 -36.21,-117.039 -24.14,-34.16 -58.31,-60.937 -102.51,-80.32 112.2,-167.61 185.29,-275.891 219.3,-324.8479 H 7084.97 L 6906.99,338.961 h -84.15" /><path
         id="path36"
         style="fill:#83cb2e;fill-opacity:1;fill-rule:nonzero;stroke:none"
         d="M 7783.63,52.8711 H 7354.24 V 798.449 h 429.39 V 668.922 H 7512.32 V 505.219 h 252.44 V 375.68 H 7512.32 V 183.422 h 271.31 V 52.8711" /><path
         id="path38"
         style="fill:#83cb2e;fill-opacity:1;fill-rule:nonzero;stroke:none"
         d="m 8379.28,259.922 c 0,-67.32 -24.22,-120.352 -72.66,-159.113 -48.45,-38.7582 -115.86,-58.1371 -202.21,-58.1371 -79.56,0 -149.94,14.957 -211.13,44.8789 V 234.422 c 50.31,-22.442 92.89,-38.25 127.75,-47.434 34.84,-9.179 66.71,-13.769 95.61,-13.769 34.68,0 61.28,6.633 79.82,19.89 18.52,13.262 27.79,32.969 27.79,59.161 0,14.609 -4.08,27.621 -12.23,39.011 -8.17,11.391 -20.15,22.348 -35.96,32.899 -15.81,10.531 -48.03,27.359 -96.64,50.48 -45.56,21.418 -79.73,41.988 -102.51,61.711 -22.78,19.707 -40.97,42.66 -54.56,68.848 -13.6,26.172 -20.4,56.769 -20.4,91.793 0,65.949 22.35,117.804 67.06,155.543 44.7,37.734 106.5,56.605 185.38,56.605 38.75,0 75.73,-4.59 110.91,-13.769 35.19,-9.18 71.99,-22.102 110.41,-38.758 L 8324.72,633.73 c -39.79,16.321 -72.68,27.711 -98.68,34.168 -26.02,6.454 -51.6,9.688 -76.76,9.688 -29.91,0 -52.86,-6.977 -68.84,-20.906 -15.99,-13.942 -23.97,-32.129 -23.97,-54.571 0,-13.937 3.23,-26.097 9.69,-36.461 6.46,-10.378 16.74,-20.398 30.85,-30.089 14.11,-9.688 47.51,-27.11 100.21,-52.278 69.69,-33.32 117.47,-66.722 143.3,-100.203 25.84,-33.488 38.76,-74.547 38.76,-123.156" /><path
         id="path40"
         style="fill:#83cb2e;fill-opacity:1;fill-rule:nonzero;stroke:none"
         d="M 9125.37,52.8711 H 8967.79 V 374.66 H 8672.51 V 52.8711 H 8514.43 V 798.449 h 158.08 V 506.23 h 295.28 v 292.219 h 157.58 V 52.8711" /><path
         id="path42"
         style="fill:#83cb2e;fill-opacity:1;fill-rule:nonzero;stroke:none"
         d="m 1077.63,1676.21 c 0,0 -70.15,-151.67 -132.911,-209.17 -42.156,-38.61 -111.078,-61.95 -187.086,-144.16 -56.352,-60.95 -63.102,-129.83 -61.875,-166.68 0.004,0.02 14.383,45.85 47.711,73.34 33.332,27.5 106.015,55.46 143.332,69.17 40.832,15 81.668,72.5 81.668,72.5 0,0 -11.879,-58.75 -63.336,-82.5 -54.164,-25 -121.664,-46.67 -150.832,-75 -23.805,-23.12 -55.832,-84.17 -55.832,-84.17 0,0 92.5,90 209.164,116.67 87.496,20 183.477,26.25 226.807,148.33 38.9,109.59 -56.81,281.67 -56.81,281.67" /><path
         id="path44"
         style="fill:#58595b;fill-opacity:1;fill-rule:nonzero;stroke:none"
         d="m 464.719,1418.29 45.625,71.25 c 0,0 109.375,-86.66 137.5,-161.25 20.965,-55.6 10.625,-198.75 10.625,-198.75 h -17.5 c 0,0 -13.149,148.26 -41.25,186.88 -56.25,77.29 -135,101.87 -135,101.87" /><g
         id="g46"><g
           clip-path="url(#clipPath52)"
           id="g48"><g
             clip-path="url(#clipPath58)"
             id="g54"><path
               id="path70"
               style="fill:url(#linearGradient68);fill-opacity:1;fill-rule:nonzero;stroke:none"
               d="m 1160,450 v 1 h -12 v 1 h -7 v 1 h -6 v 1 h -4 v 1 h -4 v 1 h -4 v 1 h -4 v 1 h -2 v 1 h -3 v 1 h -3 v 1 h -3 v 1 h -2 v 1 h -2 v 1 h -2 v 1 h -2 v 1 h -2 v 1 h -3 v 1 h -2 v 1 h -2 v 1 h -1 v 1 h -2 v 1 h -1 v 1 h -2 v 1 h -2 v 1 h -1 v 1 h -2 v 1 h -1 v 1 h -2 v 1 h -1 v 1 h -1 v 1 h -2 v 1 h -1 v 1 h -1 v 1 h -2 v 1 h -1 v 1 h -1 v 1 h -1 v 1 h -1 v 1 h -2 v 1 h -1 v 1 h -1 v 1 h -1 v 1 h -1 v 1 h -1 v 1 h -1 v 1 h -1 v 1 h -1 v 1 h -1 v 1 h -1 v 1 h -1 v 4 h 1 v 4 h 1 v 5 h 1 v 5 h 1 v 5 h 1 v 5 h 1 v 5 h 1 v 5 h 1 v 7 h 1 v 8 h 1 v 8 h 1 v 9 h 1 v 21 h 1 v 20 h -1 v 22 h -1 v 10 h -1 v 10 h -1 v 7 h -1 v 6 h -1 v 5 h -1 v 6 h -1 v 6 h -1 v 5 h -1 v 4 h -1 v 4 h -1 v 4 h -1 v 4 h -1 v 5 h -1 v 3 h -1 v 3 h -1 v 2 h 1 v 2 h -1 v 3 h -1 v 3 h -1 v 3 h -1 v 2 h -1 v 3 h -1 v 3 h -1 v 3 h -1 v 3 h -1 v 2 h -1 v 3 h -1 v 3 h -1 v 3 h -1 v 2 h -1 v 2 h -1 v 2 h -1 v 3 h -1 v 2 h -1 v 2 h -1 v 2 h -1 v 2 h -1 v 3 h -1 v 2 h -1 v 2 h -1 v 2 h -1 v 3 h -1 v 2 h -1 v 1 h -1 v 2 h -1 v 3 h -1 v 1 h -1 v 2 h -1 v 2 h -1 v 2 h -1 v 2 h -1 v 1 h -1 v 2 h -1 v 2 h -1 v 2 h -1 v 1 h -1 v 2 h -1 v 2 h -1 v 1 h -1 v 2 h -1 v 1 h -1 v 2 h -1 v 1 h -1 v 2 h -1 v 1 h -1 v 2 h -1 v 1 h -1 v 2 h -1 v 1 h -1 v 2 h -1 v 1 h -1 v 2 h -1 v 1 h -1 v 2 h -1 v 1 h -1 v 2 h -1 v 1 h -1 v 2 h -1 v 1 h -1 v 1 h -1 v 1 h -1 v 2 h -1 v 1 h -1 v 1 h -1 v 2 h -1 v 1 h -1 v 1 h -1 v 1 h -1 v 2 h -1 v 1 h -1 v 1 h -1 v 1 h -1 v 2 h -1 v 1 h -1 v 1 h -1 v 1 h -1 v 2 h -1 v 1 h -1 v 1 h -1 v 1 h -1 v 1 h -1 v 1 h -2 v 1 h -1 v 1 h -1 v 1 h -1 v 1 h -1 v 1 h -1 v 1 h -1 v 1 h -1 v 1 h -1 v 1 h -1 v 1 h -1 v 1 h -1 v 1 h -1 v 1 h -1 v 1 h -1 v 1 h -1 v 1 h -1 v 1 h -1 v 1 h -1 v 1 h -1 v 1 h -1 v 1 h -1 v 1 h -1 v 1 h -1 v 1 h -1 v 1 h -1 v 1 h -1 v 1 h -2 v 1 h -1 v 1 h -1 v 1 h -1 v 1 h -1 v 1 h -1 v 1 h -1 v 1 h -1 v 1 h -2 v 1 h -1 v 1 h -1 v 1 h -1 v 1 h -1 v 1 h -1 v 1 h -1 v 1 h -2 v 1 h -1 v 1 h -1 v 1 h -2 v 1 h -1 v 1 h -1 v 1 h -2 v 1 h -1 v 1 h -1 v 1 h -1 v 1 h -2 v 1 h -1 v 1 h -1 v 1 h -2 v 1 h -1 v 1 h -1 v 1 h -2 v 1 h -1 v 1 h -2 v 1 h -1 v 1 h -2 v 1 h -1 v 1 h -2 v 1 h -1 v 1 h -2 v 1 h -1 v 1 h -2 v 1 h -1 v 1 h -1 v 1 h -2 v 1 h -2 v 1 h -1 v 1 h -2 v 1 h -2 v 1 h -1 v 1 h -2 v 1 h -2 v 1 h -2 v 1 h -1 v 1 h -2 v 1 h -2 v 1 h -2 v 1 h -2 v 1 h -2 v 1 h -2 v 1 h -1 v 1 h -2 v 1 h -2 v 1 h -2 v 1 h -3 v 1 h -2 v 1 h -2 v 1 h -2 v 1 h -2 v 1 h -3 v 1 h -2 v 1 h -2 v 1 h -2 v 1 h -2 v 1 h -2 v 1 h -3 v 1 h -3 v 1 h -2 v 1 h -3 v 1 h -3 v 1 h -2 v 1 h -3 v 1 h -3 v 1 h -3 v 1 h -2 v 1 h -3 v 1 h -3 v 1 h -3 v 3 h -1 v 4 h -1 v 4 h -1 v 5 h -1 v 7 h -1 v 11 h -1 v 19 h 1 v 11 h 1 v 7 h 1 v 6 h 1 v 3 h 1 v 4 h 1 v 4 h 1 v 4 h 1 v 2 h 1 v 3 h 1 v 3 h 1 v 3 h 1 v 2 h 1 v 2 h 1 v 2 h 1 v 2 h 1 v 3 h 1 v 2 h 1 v 2 h 1 v 2 h 1 v 1 h 1 v 2 h 1 v 2 h 1 v 1 h 1 v 2 h 1 v 2 h 1 v 1 h 1 v 2 h 1 v 1 h 1 v 2 h 1 v 1 h 1 v 1 h 1 v 2 h 1 v 1 h 1 v 1 h 1 v 1 h 1 v 2 h 1 v 1 h 1 v 1 h 1 v 1 h 1 v 1 h 1 v 1 h 1 v 1 h 1 v 1 h 1 v 1 h 1 v 1 h 1 v 1 h 1 v 1 h 1 v 1 h 1 v 1 h 1 v 1 h 1 v 1 h 1 v 1 h 1 v 1 h 2 v 1 h 1 v 1 h 1 v 1 h 1 v 1 h 1 v 1 h 2 v 1 h 1 v 1 h 4 v 1 h 3 v 1 h 4 v 1 h 3 v 1 h 3 v 1 h 2 v 1 h 3 v 1 h 3 v 1 h 4 v 1 h 3 v 1 h 4 v 1 h 5 v 1 h 5 v 1 h 6 v 1 h 11 v 1 h 22 v -1 h 9 v -1 h 7 v -1 h 5 v -1 h 4 v -1 h 4 v -1 h 3 v -1 h 4 v -1 h 3 v -1 h 2 v -1 h 3 v -1 h 2 v -1 h 3 v -1 h 2 v -1 h 2 v -1 h 2 v -1 h 2 v -1 h 2 v -1 h 2 v -1 h 2 v -1 h 2 v -1 h 2 v -1 h 1 v -1 h 2 v -1 h 2 v -1 h 1 v -1 h 1 v -1 h 2 v -1 h 1 v -1 h 2 v -1 h 1 v -1 h 2 v -1 h 1 v -1 h 1 v -1 h 1 v -1 h 1 v -1 h 1 v -1 h 2 v -1 h 1 v -1 h 1 v -1 h 1 v -1 h 1 v -1 h 1 v -1 h 1 v -1 h 1 v -1 h 1 v -1 h 1 v -1 h 1 v -1 h 1 v -1 h 1 v -1 h 1 v -1 h 1 v -1 h 1 v -1 h 1 v -1 h 1 v -2 h 1 v -1 h 1 v -1 h 1 v -2 h 1 v -1 h 1 v -1 h 1 v -2 h 1 v -1 h 1 v -1 h 1 v -2 h 1 v -1 h 1 v -2 h 1 v -2 h 1 v -1 h 1 v -2 h 1 v -2 h 1 v -1 h 1 v -2 h 1 v -2 h 1 v -2 h 1 v -2 h 1 v -3 h 1 v -2 h 1 v -2 h 1 v -2 h 1 v -3 h 1 v -3 h 1 v -3 h 1 v -3 h 1 v -3 h 1 v -4 h 1 v -4 h 1 v -4 h 1 v -6 h 1 v -6 h 1 v -6 h 1 v -4 h 1 v -4 h 1 v -5 h 1 v -4 h 1 v -5 h 1 v -4 h 1 v -5 h 1 v -3 h 1 v -3 h 1 v -4 h 1 v -3 h 1 v -3 h 1 v -3 h 1 v -4 h 1 v -3 h 1 v -3 h 1 v -3 h 1 v -4 h 1 v -3 h 1 v -3 h 1 v -3 h 1 v -2 h 1 v -2 h 1 v -3 h 1 v -4 h 1 v -4 h 1 v -5 h 1 v -4 h 1 v -4 h 1 v -3 h 1 v -4 h 1 v -3 h 1 v -3 h 1 v -3 h 1 v -3 h 1 v -3 h 1 v -2 h 1 v -3 h 1 v -2 h 1 v -3 h 1 v -2 h 1 v -3 h 1 v -2 h 1 v -2 h 1 v -2 h 1 v -2 h 1 v -2 h 1 v -2 h 1 v -2 h 1 v -2 h 1 v -2 h 1 v -2 h 1 v -2 h 1 v -2 h 1 v -1 h 1 v -2 h 1 v -2 h 1 v -2 h 1 v -2 h 1 v -1 h 1 v -2 h 1 v -2 h 1 v -2 h 1 v -1 h 1 v -2 h 1 v -2 h 1 v -1 h 1 v -2 h 1 v -1 h 1 v -2 h 1 v -2 h 1 v -1 h 1 v -1 h 1 v -2 h 1 v -1 h 1 v -2 h 1 v -1 h 1 v -1 h 1 v -2 h 1 v -1 h 1 v -2 h 1 v -1 h 1 v -1 h 1 v -2 h 1 v -1 h 1 v -1 h 1 v -1 h 1 v -1 h 1 v -1 h 1 v -2 h 1 v -1 h 1 v -1 h 1 v -1 h 1 v -1 h 1 v -2 h 1 v -1 h 1 v -1 h 1 v -1 h 1 v -1 h 1 v -1 h 1 v -1 h 1 v -1 h 1 v -1 h 1 v -1 h 1 v -1 h 1 v -1 h 1 v -1 h 1 v -1 h 1 v -1 h 1 v -1 h 1 v -1 h 1 v -1 h 1 v -2 h 1 v -1 h 1 v -2 h 1 v -1 h 1 v -1 h 1 v -2 h 1 v -1 h 1 v -1 h 1 v -1 h 1 v -1 h 1 v -2 h 1 v -1 h 1 v -1 h 1 v -1 h 1 v -1 h 1 v -1 h 1 v -2 h 1 v -1 h 1 v -1 h 1 v -1 h 1 v -1 h 1 v -1 h 1 v -2 h 1 v -1 h 1 v -1 h 1 v -1 h 1 v -1 h 1 v -1 h 1 v -2 h 1 v -1 h 1 v -1 h 1 v -1 h 1 v -1 h 1 v -1 h 1 v -2 h 1 v -1 h 1 v -1 h 1 v -1 h 1 v -1 h 1 v -1 h 2 v -1 h 1 v -1 h 1 v -1 h 1 v -1 h 1 v -1 h 1 v -1 h 1 v -1 h 1 v -1 h 1 v -1 h 1 v -1 h 1 v -1 h 1 v -1 h 1 v -1 h 1 v -1 h 1 v -1 h 1 v -1 h 1 v -1 h 1 v -1 h 1 v -1 h 1 v -1 h 1 v -1 h 1 v -1 h 1 v -1 h 2 v -1 h 1 v -1 h 1 v -1 h 1 v -1 h 1 v -1 h 1 v -1 h 1 v -1 h 1 v -1 h 1 v -1 h 1 v -1 h 1 v -1 h 1 v -1 h 1 v -1 h 1 v -1 h 1 v -1 h 1 v -1 h 1 v -2 h 1 v -1 h 1 v -1 h 1 v -1 h 1 v -1 h 1 v -2 h 1 v -1 h 1 v -1 h 1 v -1 h 1 v -2 h 1 v -1 h 1 v -2 h 1 v -1 h 1 v -2 h 1 v -1 h 1 v -2 h 1 v -1 h 1 v -2 h 1 v -2 h 1 v -2 h 1 v -2 h 1 v -2 h 1 v -2 h 1 v -2 h 1 v -2 h 1 v -2 h 1 v -3 h 1 v -3 h 1 v -2 h 1 v -3 h 1 v -3 h 1 v -3 h 1 v -4 h 1 v -4 h 1 v -3 h 1 v -7 h 1 v -6 h 1 v -10 h 1 v -21 h -1 v -10 h -1 v -5 h -1 v -6 h -1 v -5 h -1 v -3 h -1 v -3 h -1 v -4 h -1 v -3 h -1 v -3 h -1 v -3 h -1 v -2 h -1 v -2 h -1 v -3 h -1 v -2 h -1 v -2 h -1 v -2 h -1 v -2 h -1 v -2 h -1 v -2 h -1 v -1 h -1 v -2 h -1 v -2 h -1 v -2 h -1 v -1 h -1 v -2 h -1 v -1 h -1 v -1 h -1 v -2 h -1 v -1 h -1 v -2 h -1 v -1 h -1 v -1 h -1 v -2 h -1 v -1 h -1 v -1 h -1 v -1 h -1 v -1 h -1 v -1 h -1 v -2 h -1 v -1 h -1 v -1 h -1 v -1 h -1 v -1 h -1 v -1 h -1 v -1 h -1 v -1 h -1 v -1 h -1 v -1 h -1 v -1 h -1 v -1 h -1 v -1 h -1 v -1 h -1 v -1 h -2 v -1 h -1 v -1 h -1 v -1 h -1 v -1 h -2 v -1 h -1 v -1 h -1 v -1 h -1 v -1 h -1 v -1 h -1 v -1 h -2 v -1 h -1 v -1 h -1 v -1 h -1 v -1 h -1 v -1 h -1 v -1 h -1 v -1 h -1 v -1 h -2 v -1 h -2 v -1 h -3 v -1 h -3 v -1 h -3 v -1 h -4 v -1 h -4 v -1 h -4 v -1 h -6 v -1 h -6 v -1 h -11 v -1" /></g></g></g><g
         id="g72"><g
           clip-path="url(#clipPath78)"
           id="g74"><g
             clip-path="url(#clipPath84)"
             id="g80"><path
               id="path96"
               style="fill:url(#linearGradient94);fill-opacity:1;fill-rule:nonzero;stroke:none"
               d="m 883,33 v 1 h -10 v 1 h -5 v 1 h -4 v 1 h -5 v 1 h -4 v 1 h -3 v 1 h -4 v 1 h -3 v 1 h -2 v 1 h -3 v 1 h -3 v 1 h -2 v 1 h -3 v 1 h -3 v 1 h -3 v 1 h -3 v 1 h -3 v 1 h -4 v 1 h -3 v 1 h -3 v 1 h -3 v 1 h -4 v 1 h -4 v 1 h -4 v 1 h -3 v 1 h -1 v 1 h -1 v 1 h -1 v 2 h -1 v 1 h -1 v 1 h -1 v 2 h -1 v 1 h -1 v 1 h -1 v 1 h -1 v 2 h -1 v 1 h -1 v 2 h -1 v 1 h -1 v 2 h -1 v 1 h -1 v 2 h -1 v 2 h -1 v 2 h -1 v 1 h -1 v 3 h -1 v 2 h -1 v 2 h -1 v 2 h -1 v 2 h -1 v 2 h -1 v 3 h -1 v 3 h -1 v 2 h -1 v 3 h -1 v 2 h -1 v 4 h -1 v 4 h -1 v 4 h -1 v 3 h -1 v 7 h -1 v 6 h -1 v 12 h -1 v 16 h 1 v 12 h 1 v 6 h 1 v 6 h 1 v 4 h 1 v 4 h 1 v 4 h 1 v 3 h 1 v 3 h 1 v 3 h 1 v 3 h 1 v 1 h 3 v 1 h 4 v 1 h 3 v 1 h 3 v 1 h 4 v 1 h 3 v 1 h 4 v 1 h 3 v 1 h 3 v 1 h 3 v 1 h 2 v 1 h 3 v 1 h 2 v 1 h 3 v 1 h 2 v 1 h 3 v 1 h 2 v 1 h 3 v 1 h 3 v 1 h 2 v 1 h 3 v 1 h 2 v 1 h 2 v 1 h 2 v 1 h 2 v 1 h 2 v 1 h 2 v 1 h 2 v 1 h 2 v 1 h 2 v 1 h 2 v 1 h 2 v 1 h 2 v 1 h 2 v 1 h 2 v 1 h 2 v 1 h 2 v 1 h 2 v 1 h 2 v 1 h 1 v 1 h 2 v 1 h 2 v 1 h 1 v 1 h 2 v 1 h 1 v 1 h 2 v 1 h 1 v 1 h 2 v 1 h 2 v 1 h 1 v 1 h 2 v 1 h 1 v 1 h 2 v 1 h 2 v 1 h 1 v 1 h 2 v 1 h 1 v 1 h 2 v 1 h 1 v 1 h 2 v 1 h 1 v 1 h 2 v 1 h 1 v 1 h 1 v 1 h 1 v 1 h 2 v 1 h 1 v 1 h 1 v 1 h 2 v 1 h 1 v 1 h 1 v 1 h 1 v 1 h 2 v 1 h 1 v 1 h 1 v 1 h 2 v 1 h 1 v 1 h 1 v 1 h 1 v 1 h 2 v 1 h 1 v 1 h 1 v 1 h 2 v 1 h 1 v 1 h 1 v 1 h 1 v 1 h 1 v 1 h 1 v 1 h 1 v 1 h 1 v 1 h 1 v 1 h 1 v 1 h 1 v 1 h 1 v 1 h 1 v 1 h 1 v 1 h 1 v 1 h 1 v 1 h 2 v 1 h 1 v 1 h 1 v 1 h 1 v 1 h 1 v 1 h 1 v 1 h 1 v 1 h 1 v 1 h 1 v 1 h 1 v 1 h 1 v 1 h 1 v 1 h 1 v 1 h 1 v 1 h 1 v 1 h 1 v 2 h 1 v 1 h 1 v 1 h 1 v 1 h 1 v 1 h 1 v 1 h 1 v 1 h 1 v 2 h 1 v 1 h 1 v 1 h 1 v 1 h 1 v 1 h 1 v 1 h 1 v 2 h 1 v 1 h 1 v 1 h 1 v 1 h 1 v 1 h 1 v 1 h 1 v 1 h 1 v 2 h 1 v 1 h 1 v 1 h 1 v 1 h 1 v 2 h 1 v 1 h 1 v 1 h 1 v 2 h 1 v 1 h 1 v 2 h 1 v 1 h 1 v 1 h 1 v 2 h 1 v 1 h 1 v 1 h 1 v 2 h 1 v 1 h 1 v 2 h 1 v 1 h 1 v 1 h 1 v 2 h 1 v 1 h 1 v 2 h 1 v 1 h 1 v 2 h 1 v 2 h 1 v 1 h 1 v 2 h 1 v 1 h 1 v 2 h 1 v 1 h 1 v 2 h 1 v 2 h 1 v 1 h 1 v 2 h 1 v 1 h 1 v 2 h 1 v 1 h 1 v 2 h 1 v 2 h 1 v 2 h 1 v 2 h 1 v 2 h 1 v 2 h 1 v 2 h 1 v 2 h 1 v 2 h 1 v 2 h 1 v 2 h 1 v 2 h 1 v 2 h 1 v 2 h 1 v 2 h 1 v 3 h 1 v 2 h 1 v 2 h 1 v 3 h 1 v 2 h 1 v 2 h 1 v 3 h 1 v 2 h 1 v 3 h 1 v 3 h 1 v 2 h 1 v 3 h 1 v 3 h 1 v 2 h 1 v 3 h 1 v 4 h 1 v 3 h 1 v 3 h 1 v 4 h 1 v 3 h 1 v 4 h 1 v 4 h 1 v 3 h 1 v 4 h 1 v 5 h 1 v 5 h 1 v 5 h 1 v 5 h 1 v 5 h 1 v 5 h 1 v 7 h 1 v 8 h 1 v 8 h 1 v 9 h 1 v 21 h 1 v 20 h -1 v 22 h -1 v 10 h -1 v 10 h -1 v 7 h -1 v 6 h -1 v 5 h -1 v 6 h -1 v 5 h 1 v 1 h 1 v 1 h 1 v 1 h 1 v 1 h 1 v 1 h 1 v 1 h 1 v 1 h 1 v 1 h 2 v 1 h 1 v 1 h 1 v 1 h 2 v 1 h 1 v 1 h 1 v 1 h 2 v 1 h 1 v 1 h 1 v 1 h 2 v 1 h 2 v 1 h 1 v 1 h 2 v 1 h 1 v 1 h 2 v 1 h 2 v 1 h 2 v 1 h 2 v 1 h 2 v 1 h 2 v 1 h 2 v 1 h 2 v 1 h 2 v 1 h 2 v 1 h 3 v 1 h 3 v 1 h 2 v 1 h 3 v 1 h 3 v 1 h 4 v 1 h 4 v 1 h 4 v 1 h 4 v 1 h 7 v 1 h 6 v 1 h 35 v -1 h 7 v -1 h 6 v -1 h 4 v -1 h 4 v -1 h 4 v -1 h 4 v -1 h 3 v -1 h 2 v -1 h 3 v -1 h 3 v -1 h 2 v -1 h 3 v -1 h 2 v -1 h 2 v -1 h 2 v -1 h 2 v -1 h 2 v -1 h 2 v -1 h 1 v -1 h 2 v -1 h 2 v -1 h 1 v -1 h 2 v -1 h 2 v -1 h 1 v -1 h 1 v -1 h 2 v -1 h 1 v -1 h 2 v -1 h 1 v -1 h 1 v -1 h 2 v -1 h 1 v -1 h 1 v -1 h 1 v -1 h 1 v -1 h 1 v -1 h 2 v -2 h 1 v -1 h 1 v -2 h 1 v -1 h 1 v -2 h 1 v -1 h 1 v -2 h 1 v -1 h 1 v -2 h 1 v -2 h 1 v -2 h 1 v -2 h 1 v -2 h 1 v -2 h 1 v -2 h 1 v -2 h 1 v -2 h 1 v -3 h 1 v -3 h 1 v -2 h 1 v -3 h 1 v -3 h 1 v -3 h 1 v -4 h 1 v -4 h 1 v -3 h 1 v -7 h 1 v -6 h 1 v -10 h 1 v -21 h -1 v -10 h -1 v -5 h -1 v -6 h -1 v -5 h -1 v -3 h -1 v -3 h -1 v -4 h -1 v -3 h -1 v -3 h -1 v -3 h -1 v -2 h -1 v -2 h -1 v -3 h -1 v -2 h -1 v -2 h -1 v -2 h -1 v -2 h -1 v -2 h -1 v -2 h -1 v -1 h -1 v -2 h -1 v -2 h -1 v -2 h -1 v -1 h -1 v -2 h -1 v -1 h -1 v -1 h -1 v -2 h -1 v -1 h -1 v -2 h -1 v -1 h -1 v -1 h -1 v -2 h -1 v -1 h -1 v -1 h -1 v -1 h -1 v -1 h -1 v -1 h -1 v -2 h -1 v -1 h -1 v -1 h -1 v -1 h -1 v -1 h -1 v -1 h -1 v -1 h -1 v -1 h -1 v -1 h -1 v -1 h -1 v -1 h -1 v -1 h -1 v -1 h -1 v -1 h -1 v -1 h -2 v -1 h -1 v -1 h -1 v -1 h -1 v -1 h -2 v -1 h -1 v -1 h -1 v -1 h -1 v -1 h -1 v -1 h -1 v -1 h -2 v -1 h -1 v -1 h -1 v -1 h -1 v -1 h -1 v -1 h -1 v -1 h -1 v -1 h -1 v -1 h -1 v -1 h -1 v -1 h -1 v -1 h -1 v -1 h -1 v -1 h -2 v -1 h -1 v -1 h -1 v -1 h -1 v -1 h -1 v -1 h -1 v -1 h -1 v -1 h -1 v -1 h -1 v -1 h -1 v -1 h -1 v -1 h -1 v -1 h -1 v -1 h -1 v -1 h -1 v -1 h -1 v -2 h -1 v -1 h -1 v -1 h -1 v -1 h -1 v -1 h -1 v -1 h -1 v -1 h -1 v -1 h -1 v -1 h -1 v -1 h -1 v -1 h -1 v -1 h -1 v -1 h -1 v -2 h -1 v -1 h -1 v -1 h -1 v -1 h -1 v -1 h -1 v -1 h -1 v -1 h -1 v -1 h -1 v -1 h -1 v -1 h -1 v -2 h -1 v -1 h -1 v -1 h -1 v -2 h -1 v -1 h -1 v -1 h -1 v -2 h -1 v -1 h -1 v -1 h -1 v -1 h -1 v -2 h -1 v -1 h -1 v -1 h -1 v -2 h -1 v -1 h -1 v -1 h -1 v -2 h -1 v -1 h -1 v -1 h -1 v -1 h -1 v -2 h -1 v -1 h -1 v -1 h -1 v -2 h -1 v -1 h -1 v -1 h -1 v -2 h -1 v -1 h -1 v -2 h -1 v -1 h -1 v -2 h -1 v -2 h -1 v -1 h -1 v -1 h -1 v -2 h -1 v -1 h -1 v -1 h -1 v -1 h -1 v -1 h -1 v -1 h -1 v -1 h -1 v -1 h -1 v -1 h -1 v -2 h -1 v -1 h -1 v -1 h -1 v -1 h -1 v -2 h -1 v -1 h -1 v -1 h -1 v -1 h -1 v -1 h -1 v -2 h -1 v -1 h -1 v -1 h -1 v -2 h -1 v -1 h -1 v -2 h -1 v -1 h -1 v -2 h -1 v -1 h -1 v -1 h -1 v -2 h -1 v -1 h -1 v -2 h -1 v -2 h -1 v -1 h -1 v -2 h -1 v -1 h -1 v -2 h -1 v -2 h -1 v -1 h -1 v -2 h -1 v -2 h -1 v -1 h -1 v -2 h -1 v -1 h -1 v -2 h -1 v -2 h -1 v -2 h -1 v -1 h -1 v -2 h -1 v -2 h -1 v -2 h -1 v -2 h -1 v -2 h -1 v -2 h -1 v -2 h -1 v -2 h -1 v -2 h -1 v -3 h -1 v -2 h -1 v -2 h -1 v -2 h -1 v -3 h -1 v -2 h -1 v -3 h -1 v -3 h -1 v -2 h -1 v -3 h -1 v -3 h -1 v -3 h -1 v -4 h -1 v -3 h -1 v -3 h -1 v -4 h -1 v -4 h -1 v -4 h -1 v -3 h -1 v -3 h -1 v -3 h -1 v -3 h -1 v -2 h -1 v -3 h -1 v -3 h -1 v -3 h -1 v -3 h -1 v -3 h -1 v -2 h -1 v -3 h -1 v -4 h -1 v -4 h -1 v -3 h -1 v -4 h -1 v -4 h -1 v -4 h -1 v -3 h -1 v -4 h -1 v -4 h -1 v -5 h -1 v -5 h -1 v -5 h -1 v -3 h -1 v -4 h -1 v -3 h -1 v -3 h -1 v -3 h -1 v -3 h -1 v -2 h -1 v -3 h -1 v -2 h -1 v -2 h -1 v -2 h -1 v -2 h -1 v -2 h -1 v -2 h -1 v -2 h -1 v -2 h -1 v -2 h -1 v -1 h -1 v -2 h -1 v -1 h -1 v -2 h -1 v -2 h -1 v -1 h -1 v -2 h -1 v -1 h -1 v -1 h -1 v -2 h -1 v -1 h -1 v -1 h -1 v -1 h -1 v -2 h -1 v -1 h -1 v -1 h -1 v -1 h -1 v -2 h -1 v -1 h -1 v -1 h -1 v -1 h -1 v -1 h -1 v -1 h -1 v -1 h -1 v -1 h -1 v -1 h -1 v -1 h -1 v -1 h -1 v -1 h -1 v -1 h -2 v -1 h -1 v -1 h -1 v -1 h -1 v -1 h -2 v -1 h -1 v -1 h -1 v -1 h -1 v -1 h -2 v -1 h -1 v -1 h -1 v -1 h -2 v -1 h -1 v -1 h -2 v -1 h -1 v -1 h -2 v -1 h -2 v -1 h -1 v -1 h -2 v -1 h -2 v -1 h -2 v -1 h -1 v -1 h -3 v -1 h -2 v -1 h -2 v -1 h -2 v -1 h -2 v -1 h -3 v -1 h -3 v -1 h -3 v -1 h -3 v -1 h -2 v -1 h -3 v -1 h -5 v -1 h -4 v -1 h -4 v -1 h -6 v -1 h -9 v -1" /></g></g></g><g
         id="g98"><g
           clip-path="url(#clipPath104)"
           id="g100"><g
             clip-path="url(#clipPath110)"
             id="g106"><path
               id="path122"
               style="fill:url(#linearGradient120);fill-opacity:1;fill-rule:nonzero;stroke:none"
               d="m 883,33 v 1 h -10 v 1 h -5 v 1 h -4 v 1 h -5 v 1 h -4 v 1 h -3 v 1 h -4 v 1 h -3 v 1 h -2 v 1 h -3 v 1 h -3 v 1 h -2 v 1 h -3 v 1 h -3 v 1 h -3 v 1 h -3 v 1 h -3 v 1 h -4 v 1 h -3 v 1 h -3 v 1 h -3 v 1 h -4 v 1 h -4 v 1 h -4 v 1 h -4 v 1 h -4 v 1 h -4 v 1 h -4 v 1 h -4 v 1 h -5 v 1 h -5 v 1 h -6 v 1 h -6 v 1 h -6 v 1 h -7 v 1 h -6 v 1 h -8 v 1 h -11 v 1 h -11 v 1 h -31 v 1 h -77 v -1 h -14 v -1 h -8 v -1 h -8 v -1 h -8 v -1 h -7 v -1 h -8 v -1 h -5 v -1 h -4 v -1 h -5 v -1 h -5 v -1 h -5 v -1 h -4 v -1 h -5 v -1 h -5 v -1 h -3 v -1 h -4 v -1 h -3 v -1 h -4 v -1 h -3 v -1 h -4 v -1 h -3 v -1 h -4 v -1 h -3 v -1 h -2 v -1 h -3 v -1 h -3 v -1 h -4 v -1 h -4 v -1 h -4 v -1 h -5 v -1 h -6 v -1 h -5 v -1 h -15 v -1 h -6 v 1 h -16 v 1 h -7 v 1 h -6 v 1 h -4 v 1 h -4 v 1 h -4 v 1 h -3 v 1 h -4 v 1 h -2 v 1 h -3 v 1 h -2 v 1 h -3 v 1 h -2 v 1 h -3 v 1 h -2 v 1 h -2 v 1 h -2 v 1 h -2 v 1 h -2 v 1 h -1 v 1 h -2 v 1 h -2 v 1 h -1 v 1 h -2 v 1 h -1 v 1 h -2 v 1 h -1 v 1 h -2 v 1 h -1 v 1 h -2 v 1 h -1 v 1 h -1 v 1 h -1 v 1 h -2 v 1 h -1 v 1 h -1 v 1 h -1 v 1 h -1 v 1 h -1 v 1 h -2 v 1 h -1 v 1 h -1 v 1 h -1 v 1 h -1 v 1 h -1 v 1 h -1 v 1 h -1 v 1 h -1 v 1 h -1 v 2 h -1 v 1 h -1 v 1 h -1 v 1 h -1 v 1 h -1 v 1 h -1 v 1 h -1 v 2 h -1 v 1 h -1 v 1 h -1 v 2 h -1 v 1 h -1 v 1 h -1 v 2 h -1 v 1 h -1 v 2 h -1 v 1 h -1 v 2 h -1 v 2 h -1 v 1 h -1 v 2 h -1 v 2 h -1 v 2 h -1 v 1 h -1 v 3 h -1 v 2 h -1 v 2 h -1 v 2 h -1 v 3 h -1 v 2 h -1 v 2 h -1 v 3 h -1 v 3 h -1 v 4 h -1 v 3 h -1 v 3 h -1 v 4 h -1 v 5 h -1 v 5 h -1 v 7 h -1 v 6 h -1 v 5 h -1 v 4 h -1 v 5 h -1 v 5 h -1 v 4 h -1 v 5 h -1 v 3 h -1 v 4 h -1 v 3 h -1 v 4 h -1 v 3 h -1 v 4 h -1 v 1 h 1 v 3 h 1 v 2 h 1 v 2 h 1 v 2 h 1 v 2 h 1 v 2 h 1 v 1 h 1 v 2 h 1 v 2 h 1 v 1 h 1 v 2 h 1 v 1 h 1 v 2 h 1 v 1 h 1 v 2 h 1 v 1 h 1 v 2 h 1 v 1 h 1 v 1 h 1 v 1 h 1 v 1 h 1 v 2 h 1 v 1 h 1 v 1 h 1 v 1 h 1 v 1 h 1 v 2 h 1 v 1 h 1 v 1 h 1 v 1 h 1 v 1 h 1 v 1 h 1 v 1 h 1 v 1 h 1 v 1 h 1 v 1 h 1 v 1 h 2 v 1 h 1 v 1 h 1 v 1 h 1 v 1 h 1 v 1 h 2 v 1 h 1 v 1 h 1 v 1 h 1 v 1 h 2 v 1 h 1 v 1 h 1 v 1 h 2 v 1 h 1 v 1 h 2 v 1 h 1 v 1 h 2 v 1 h 2 v 1 h 1 v 1 h 2 v 1 h 2 v 1 h 2 v 1 h 2 v 1 h 2 v 1 h 2 v 1 h 2 v 1 h 2 v 1 h 2 v 1 h 3 v 1 h 2 v 1 h 3 v 1 h 3 v 1 h 3 v 1 h 3 v 1 h 4 v 1 h 4 v 1 h 4 v 1 h 6 v 1 h 6 v 1 h 7 v -1 h 1 v -1 h 1 v -1 h 1 v -1 h 1 v -1 h 1 v -1 h 1 v -1 h 1 v -1 h 1 v -1 h 1 v -1 h 1 v -1 h 1 v -1 h 1 v -1 h 1 v -1 h 1 v -1 h 1 v -1 h 1 v -1 h 1 v -1 h 1 v -1 h 1 v -1 h 2 v -1 h 1 v -1 h 1 v -1 h 1 v -1 h 1 v -1 h 2 v -1 h 1 v -1 h 1 v -1 h 1 v -1 h 2 v -1 h 1 v -1 h 1 v -1 h 1 v -1 h 1 v -1 h 2 v -1 h 1 v -1 h 1 v -1 h 1 v -1 h 1 v -1 h 2 v -1 h 1 v -1 h 1 v -1 h 2 v -1 h 1 v -1 h 2 v -1 h 1 v -1 h 2 v -1 h 1 v -1 h 1 v -1 h 2 v -1 h 1 v -1 h 2 v -1 h 1 v -1 h 2 v -1 h 1 v -1 h 1 v -1 h 2 v -1 h 1 v -1 h 2 v -1 h 2 v -1 h 1 v -1 h 2 v -1 h 2 v -1 h 1 v -1 h 2 v -1 h 2 v -1 h 1 v -1 h 2 v -1 h 2 v -1 h 2 v -1 h 2 v -1 h 2 v -1 h 2 v -1 h 2 v -1 h 2 v -1 h 1 v -1 h 2 v -1 h 2 v -1 h 2 v -1 h 2 v -1 h 2 v -1 h 2 v -1 h 3 v -1 h 2 v -1 h 2 v -1 h 3 v -1 h 2 v -1 h 3 v -1 h 2 v -1 h 2 v -1 h 3 v -1 h 2 v -1 h 3 v -1 h 2 v -1 h 2 v -1 h 3 v -1 h 2 v -1 h 4 v -1 h 3 v -1 h 3 v -1 h 3 v -1 h 4 v -1 h 3 v -1 h 3 v -1 h 4 v -1 h 3 v -1 h 3 v -1 h 4 v -1 h 4 v -1 h 5 v -1 h 5 v -1 h 5 v -1 h 5 v -1 h 5 v -1 h 5 v -1 h 6 v -1 h 10 v -1 h 10 v -1 h 10 v -1 h 52 v 1 h 11 v 1 h 11 v 1 h 9 v 1 h 5 v 1 h 6 v 1 h 5 v 1 h 5 v 1 h 6 v 1 h 5 v 1 h 5 v 1 h 3 v 1 h 4 v 1 h 3 v 1 h 4 v 1 h 3 v 1 h 3 v 1 h 4 v 1 h 3 v 1 h 4 v 1 h 3 v 1 h 3 v 1 h 3 v 1 h 2 v 1 h 3 v 1 h 2 v 1 h 3 v 1 h 2 v 1 h 3 v 1 h 2 v 1 h 3 v 1 h 3 v 1 h 2 v 1 h 3 v 1 h 2 v 1 h 2 v 1 h 2 v 1 h 2 v 1 h 2 v 1 h 2 v 1 h 2 v 1 h 2 v 1 h 2 v 1 h 2 v 1 h 2 v 1 h 2 v 1 h 2 v 1 h 2 v 1 h 2 v 1 h 2 v 1 h 2 v 1 h 2 v 1 h 1 v 1 h 2 v 1 h 2 v 1 h 1 v 1 h 2 v 1 h 1 v 1 h 2 v 1 h 1 v 1 h 2 v 1 h 2 v 1 h 1 v 1 h 2 v 1 h 1 v 1 h 2 v 1 h 2 v 1 h 1 v 1 h 2 v 1 h 1 v 1 h 2 v 1 h 1 v 1 h 2 v 1 h 1 v 1 h 2 v 1 h 1 v 1 h 1 v 1 h 1 v 1 h 2 v 1 h 1 v 1 h 1 v 1 h 2 v 1 h 1 v 1 h 1 v 1 h 1 v 1 h 2 v 1 h 1 v 1 h 1 v 1 h 2 v 1 h 1 v 1 h 4 v -1 h 3 v -1 h 4 v -1 h 3 v -1 h 2 v -1 h 3 v -1 h 2 v -1 h 2 v -1 h 3 v -1 h 2 v -1 h 2 v -1 h 2 v -1 h 2 v -1 h 1 v -1 h 2 v -1 h 2 v -1 h 2 v -1 h 1 v -1 h 2 v -1 h 1 v -1 h 2 v -1 h 1 v -1 h 2 v -1 h 1 v -1 h 2 v -1 h 1 v -1 h 1 v -1 h 2 v -1 h 1 v -1 h 1 v -1 h 1 v -1 h 1 v -1 h 2 v -1 h 1 v -1 h 1 v -1 h 1 v -1 h 1 v -1 h 1 v -1 h 1 v -1 h 1 v -1 h 1 v -1 h 1 v -1 h 1 v -1 h 1 v -1 h 1 v -1 h 1 v -1 h 1 v -1 h 1 v -1 h 1 v -2 h 1 v -1 h 1 v -1 h 1 v -1 h 1 v -2 h 1 v -1 h 1 v -1 h 1 v -2 h 1 v -1 h 1 v -1 h 1 v -2 h 1 v -1 h 1 v -2 h 1 v -2 h 1 v -1 h 1 v -2 h 1 v -1 h 1 v -2 h 1 v -2 h 1 v -2 h 1 v -2 h 1 v -2 h 1 v -2 h 1 v -2 h 1 v -2 h 1 v -2 h 1 v -3 h 1 v -3 h 1 v -2 h 1 v -3 h 1 v -3 h 1 v -4 h 1 v -4 h 1 v -4 h 1 v -5 h 1 v -7 h 1 v -9 h 1 v -25 h -1 v -7 h -1 v -8 h -1 v -4 h -1 v -4 h -1 v -4 h -1 v -1 h -1 v -2 h -1 v -2 h -1 v -1 h -1 v -2 h -1 v -1 h -1 v -1 h -1 v -2 h -1 v -1 h -1 v -1 h -1 v -1 h -1 v -2 h -1 v -1 h -1 v -1 h -1 v -1 h -1 v -2 h -1 v -1 h -1 v -1 h -1 v -1 h -1 v -1 h -1 v -1 h -1 v -1 h -1 v -1 h -1 v -1 h -1 v -1 h -1 v -1 h -1 v -1 h -1 v -1 h -2 v -1 h -1 v -1 h -1 v -1 h -1 v -1 h -2 v -1 h -1 v -1 h -1 v -1 h -1 v -1 h -2 v -1 h -1 v -1 h -1 v -1 h -2 v -1 h -1 v -1 h -2 v -1 h -1 v -1 h -2 v -1 h -2 v -1 h -1 v -1 h -2 v -1 h -2 v -1 h -2 v -1 h -1 v -1 h -3 v -1 h -2 v -1 h -2 v -1 h -2 v -1 h -2 v -1 h -3 v -1 h -3 v -1 h -3 v -1 h -3 v -1 h -2 v -1 h -3 v -1 h -5 v -1 h -4 v -1 h -4 v -1 h -6 v -1 h -9 v -1" /></g></g></g><g
         id="g124"><g
           clip-path="url(#clipPath130)"
           id="g126"><g
             clip-path="url(#clipPath136)"
             id="g132"><path
               id="path148"
               style="fill:url(#linearGradient146);fill-opacity:1;fill-rule:nonzero;stroke:none"
               d="m 401,41 v 1 h -7 v 1 h -6 v 1 h -4 v 1 h -4 v 1 h -4 v 1 h -3 v 1 h -4 v 1 h -2 v 1 h -3 v 1 h -2 v 1 h -3 v 1 h -2 v 1 h -3 v 1 h -2 v 1 h -2 v 1 h -2 v 1 h -2 v 1 h -2 v 1 h -1 v 1 h -2 v 1 h -2 v 1 h -1 v 1 h -2 v 1 h -1 v 1 h -2 v 1 h -1 v 1 h -2 v 1 h -1 v 1 h -2 v 1 h -1 v 1 h -1 v 1 h -1 v 1 h -2 v 1 h -1 v 1 h -1 v 1 h -1 v 1 h -1 v 1 h -1 v 1 h -2 v 1 h -1 v 1 h -1 v 1 h -1 v 1 h -1 v 1 h -1 v 1 h -1 v 1 h -1 v 1 h -1 v 1 h -1 v 2 h -1 v 1 h -1 v 1 h -1 v 1 h -1 v 1 h -1 v 1 h -1 v 1 h -1 v 2 h -1 v 1 h -1 v 1 h -1 v 2 h -1 v 1 h -1 v 1 h -1 v 2 h -1 v 1 h -1 v 2 h -1 v 1 h -1 v 2 h -1 v 2 h -1 v 1 h -1 v 2 h -1 v 2 h -1 v 2 h -1 v 1 h -1 v 3 h -1 v 2 h -1 v 2 h -1 v 2 h -1 v 3 h -1 v 2 h -1 v 2 h -1 v 3 h -1 v 3 h -1 v 4 h -1 v 3 h -1 v 3 h -1 v 4 h -1 v 5 h -1 v 5 h -1 v 7 h -1 v 6 h -1 v 5 h -1 v 4 h -1 v 5 h -1 v 5 h -1 v 4 h -1 v 5 h -1 v 3 h -1 v 4 h -1 v 3 h -1 v 4 h -1 v 3 h -1 v 4 h -1 v 3 h -1 v 4 h -1 v 3 h -1 v 4 h -1 v 2 h -1 v 3 h -1 v 3 h -1 v 2 h -1 v 3 h -1 v 3 h -1 v 2 h -1 v 3 h -1 v 2 h -1 v 3 h -1 v 3 h -1 v 2 h -1 v 3 h -1 v 2 h -1 v 3 h -1 v 2 h -1 v 2 h -1 v 2 h -1 v 3 h -1 v 2 h -1 v 2 h -1 v 2 h -1 v 2 h -1 v 3 h -1 v 2 h -1 v 2 h -1 v 2 h -1 v 2 h -1 v 2 h -1 v 1 h -1 v 2 h -1 v 2 h -1 v 2 h -1 v 2 h -1 v 2 h -1 v 2 h -1 v 1 h -1 v 2 h -1 v 2 h -1 v 2 h -1 v 2 h -1 v 1 h -1 v 2 h -1 v 2 h -1 v 2 h -1 v 2 h -1 v 1 h -1 v 2 h -1 v 2 h -1 v 2 h -1 v 2 h -1 v 1 h -1 v 2 h -1 v 2 h -1 v 2 h -1 v 1 h -1 v 2 h -1 v 2 h -1 v 2 h -1 v 1 h -1 v 2 h -1 v 2 h -1 v 2 h -1 v 1 h -1 v 2 h -1 v 2 h -1 v 1 h -1 v 2 h -1 v 1 h -1 v 2 h -1 v 1 h -1 v 2 h -1 v 1 h -1 v 2 h -1 v 1 h -1 v 2 h -1 v 1 h -1 v 2 h -1 v 1 h -1 v 2 h -1 v 1 h -1 v 2 h -1 v 1 h -1 v 2 h -1 v 1 h -1 v 1 h -1 v 2 h -1 v 1 h -1 v 1 h -1 v 2 h -1 v 1 h -1 v 1 h -1 v 2 h -1 v 1 h -1 v 1 h -1 v 1 h -1 v 2 h -1 v 1 h -1 v 1 h -1 v 2 h -1 v 1 h -1 v 1 h -1 v 2 h -1 v 1 h -1 v 1 h -1 v 2 h -1 v 1 h -1 v 1 h -1 v 1 h -1 v 1 h -1 v 2 h -1 v 1 h -1 v 1 h -1 v 1 h -1 v 1 h -1 v 1 h -1 v 1 h -1 v 1 h -1 v 1 h -1 v 2 h -1 v 1 h -1 v 1 h -1 v 1 h -1 v 1 h -1 v 1 h -1 v 1 h -1 v 1 h -1 v 1 h -1 v 2 h -1 v 1 h -1 v 1 h -1 v 1 h -1 v 1 h -1 v 1 h -1 v 1 h -1 v 1 h -1 v 1 h -1 v 1 h -1 v 1 h -1 v 1 h -1 v 1 h -1 v 1 h -1 v 1 h -1 v 1 h -1 v 1 h -1 v 1 h -1 v 1 h -1 v 1 h -1 v 1 h -1 v 1 h -1 v 1 h -1 v 1 h -1 v 1 h -1 v 1 h -1 v 1 h -1 v 1 h -2 v 1 h -1 v 1 h -1 v 1 h -1 v 1 h -1 v 1 h -1 v 1 h -1 v 1 h -2 v 1 h -1 v 1 h -1 v 1 h -1 v 1 h -1 v 1 h -1 v 1 h -1 v 1 h -1 v 1 h -1 v 1 h -1 v 1 h -1 v 1 h -1 v 1 h -1 v 2 h -1 v 1 h -1 v 1 h -1 v 1 h -1 v 1 h -1 v 2 h -1 v 1 h -1 v 1 h -1 v 1 h -1 v 2 h -1 v 1 h -1 v 1 h -1 v 2 h -1 v 1 h -1 v 2 h -1 v 1 h -1 v 2 h -1 v 1 h -1 v 2 h -1 v 2 h -1 v 2 h -1 v 2 h -1 v 2 h -1 v 2 h -1 v 2 h -1 v 2 h -1 v 2 h -1 v 3 h -1 v 2 h -1 v 3 h -1 v 2 h -1 v 3 h -1 v 3 h -1 v 4 h -1 v 4 h -1 v 3 h -1 v 5 h -1 v 7 h -1 v 6 h -1 v 32 h 1 v 8 h 1 v 5 h 1 v 6 h 1 v 4 h 1 v 3 h 1 v 4 h 1 v 3 h 1 v 3 h 1 v 3 h 1 v 2 h 1 v 3 h 1 v 2 h 1 v 2 h 1 v 2 h 1 v 3 h 1 v 2 h 1 v 1 h 1 v 2 h 1 v 2 h 1 v 2 h 1 v 1 h 1 v 2 h 1 v 2 h 1 v 1 h 1 v 2 h 1 v 1 h 1 v 2 h 1 v 1 h 1 v 1 h 1 v 2 h 1 v 1 h 1 v 2 h 1 v 1 h 1 v 1 h 1 v 1 h 1 v 1 h 1 v 1 h 1 v 2 h 1 v 1 h 1 v 1 h 1 v 1 h 1 v 1 h 1 v 1 h 1 v 1 h 1 v 1 h 1 v 1 h 1 v 1 h 1 v 1 h 1 v 1 h 1 v 1 h 1 v 1 h 1 v 1 h 1 v 1 h 2 v 1 h 1 v 1 h 1 v 1 h 1 v 1 h 2 v 1 h 1 v 1 h 1 v 1 h 1 v 1 h 1 v 1 h 2 v 1 h 1 v 1 h 1 v 1 h 1 v 1 h 1 v 1 h 1 v 1 h 1 v 1 h 2 v 1 h 1 v 1 h 1 v 1 h 1 v 1 h 1 v 1 h 1 v 1 h 1 v 1 h 1 v 1 h 1 v 1 h 1 v 1 h 1 v 1 h 1 v 1 h 1 v 1 h 1 v 1 h 1 v 1 h 1 v 1 h 1 v 1 h 1 v 1 h 1 v 1 h 1 v 1 h 1 v 1 h 1 v 1 h 1 v 1 h 1 v 1 h 1 v 1 h 1 v 1 h 1 v 1 h 1 v 1 h 1 v 1 h 1 v 1 h 1 v 1 h 1 v 1 h 10 v 1 h 13 v -1 h 11 v -1 h 6 v -1 h 6 v -1 h 5 v -1 h 4 v -1 h 3 v -1 h 3 v -1 h 4 v -1 h 3 v -1 h 2 v -1 h 3 v -1 h 2 v -1 h 3 v -1 h 2 v -1 h 2 v -1 h 2 v -1 h 2 v -1 h 2 v -1 h 2 v -1 h 2 v -1 h 1 v -1 h 2 v -1 h 2 v -1 h 1 v -1 h 2 v -1 h 1 v -1 h 2 v -1 h 1 v -1 h 2 v -1 h 1 v -1 h 2 v -1 h 1 v -1 h 1 v -1 h 1 v -1 h 1 v -1 h 2 v -1 h 1 v -1 h 1 v -1 h 1 v -1 h 1 v -1 h 1 v -1 h 1 v -1 h 1 v -1 h 1 v -1 h 1 v -1 h 1 v -1 h 1 v -1 h 1 v -1 h 1 v -1 h 1 v -1 h 1 v -1 h 1 v -1 h 1 v -1 h 1 v -1 h 1 v -2 h 1 v -1 h 1 v -1 h 1 v -1 h 1 v -2 h 1 v -1 h 1 v -1 h 1 v -2 h 1 v -1 h 1 v -4 h -1 v -4 h -1 v -4 h -1 v -4 h -1 v -3 h -1 v -4 h -1 v -5 h -1 v -6 h -1 v -6 h -1 v -6 h -1 v -6 h -1 v -7 h -1 v -8 h -1 v -15 h -1 v -15 h -1 v -10 h 1 v -32 h 1 v -8 h 1 v -8 h 1 v -8 h 1 v -8 h 1 v -6 h 1 v -5 h 1 v -5 h 1 v -4 h 1 v -5 h 1 v -4 h 1 v -5 h 1 v -5 h 1 v -3 h 1 v -3 h 1 v -3 h 1 v -4 h 1 v -3 h 1 v -3 h 1 v -3 h 1 v -3 h 1 v -3 h 1 v -4 h 1 v -3 h 1 v -3 h 1 v -2 h 1 v -2 h 1 v -3 h 1 v -2 h 1 v -2 h 1 v -3 h 1 v -2 h 1 v -2 h 1 v -3 h 1 v -2 h 1 v -3 h 1 v -2 h 1 v -2 h 1 v -3 h 1 v -2 h 1 v -2 h 1 v -1 h 1 v -2 h 1 v -2 h 1 v -2 h 1 v -2 h 1 v -2 h 1 v -2 h 1 v -1 h 1 v -2 h 1 v -2 h 1 v -2 h 1 v -2 h 1 v -2 h 1 v -2 h 1 v -1 h 1 v -2 h 1 v -2 h 1 v -1 h 1 v -2 h 1 v -1 h 1 v -2 h 1 v -1 h 1 v -2 h 1 v -1 h 1 v -2 h 1 v -1 h 1 v -2 h 1 v -1 h 1 v -2 h 1 v -1 h 1 v -2 h 1 v -1 h 1 v -2 h 1 v -1 h 1 v -2 h 1 v -1 h 1 v -2 h 1 v -1 h 1 v -1 h 1 v -1 h 1 v -2 h 1 v -1 h 1 v -1 h 1 v -1 h 1 v -2 h 1 v -1 h 1 v -1 h 1 v -1 h 1 v -1 h 1 v -2 h 1 v -1 h 1 v -1 h 1 v -1 h 1 v -2 h 1 v -1 h 1 v -1 h 1 v -1 h 1 v -2 h 1 v -1 h 1 v -1 h 1 v -1 h 1 v -1 h 1 v -1 h 1 v -1 h 1 v -1 h 1 v -1 h 1 v -1 h 1 v -1 h 1 v -1 h 1 v -1 h 1 v -1 h 1 v -1 h 1 v -1 h 1 v -1 h 1 v -1 h 1 v -1 h 1 v -1 h 1 v -1 h 1 v -1 h 1 v -1 h 1 v -1 h 1 v -1 h 1 v -1 h 1 v -1 h 1 v -1 h 1 v -1 h 1 v -1 h 1 v -1 h 1 v -1 h 1 v -1 h 1 v -1 h 1 v -1 h 1 v -1 h 1 v -1 h 2 v -1 h 1 v -1 h 1 v -1 h 1 v -1 h 1 v -1 h 2 v -1 h 1 v -1 h 1 v -1 h 1 v -1 h 2 v -1 h 1 v -1 h 1 v -1 h 1 v -1 h 1 v -1 h 2 v -1 h 1 v -1 h 1 v -1 h 1 v -1 h 1 v -1 h 2 v -1 h 1 v -1 h 1 v -1 h 2 v -1 h 1 v -1 h 2 v -1 h 1 v -1 h 2 v -1 h 1 v -1 h 1 v -1 h 2 v -1 h 1 v -1 h 2 v -1 h 1 v -1 h 2 v -1 h 1 v -1 h 1 v -1 h 2 v -1 h 1 v -1 h 2 v -1 h 2 v -1 h 1 v -1 h 2 v -1 h 2 v -1 h 1 v -1 h 2 v -1 h 2 v -1 h 1 v -1 h 2 v -1 h 2 v -1 h 2 v -1 h 2 v -1 h 2 v -1 h 2 v -1 h 2 v -1 h 2 v -1 h 1 v -1 h 2 v -1 h 2 v -1 h 2 v -1 h 2 v -1 h 2 v -1 h 2 v -1 h 3 v -1 h 2 v -1 h 2 v -1 h 3 v -1 h 2 v -1 h 3 v -1 h 2 v -1 h 2 v -1 h 1 v -2 h 1 v -3 h 1 v -5 h 1 v -5 h 1 v -5 h 1 v -10 h 1 v -27 h -1 v -10 h -1 v -5 h -1 v -5 h -1 v -5 h -1 v -4 h -1 v -3 h -1 v -3 h -1 v -3 h -1 v -4 h -1 v -2 h -1 v -2 h -1 v -3 h -1 v -2 h -1 v -2 h -1 v -3 h -1 v -1 h -1 v -2 h -1 v -2 h -1 v -2 h -1 v -2 h -1 v -2 h -1 v -1 h -1 v -2 h -1 v -2 h -1 v -1 h -1 v -2 h -1 v -1 h -1 v -2 h -1 v -1 h -1 v -2 h -1 v -1 h -1 v -1 h -1 v -1 h -1 v -2 h -1 v -1 h -1 v -1 h -1 v -1 h -1 v -1 h -1 v -1 h -1 v -2 h -1 v -1 h -1 v -1 h -1 v -1 h -1 v -1 h -1 v -1 h -1 v -1 h -1 v -1 h -1 v -1 h -2 v -1 h -1 v -1 h -1 v -1 h -1 v -1 h -1 v -1 h -1 v -1 h -1 v -1 h -2 v -1 h -1 v -1 h -1 v -1 h -2 v -1 h -1 v -1 h -1 v -1 h -2 v -1 h -1 v -1 h -2 v -1 h -1 v -1 h -2 v -1 h -1 v -1 h -2 v -1 h -2 v -1 h -1 v -1 h -2 v -1 h -2 v -1 h -2 v -1 h -2 v -1 h -2 v -1 h -2 v -1 h -3 v -1 h -2 v -1 h -3 v -1 h -2 v -1 h -3 v -1 h -3 v -1" /></g></g></g><g
         id="g150"><g
           clip-path="url(#clipPath156)"
           id="g152"><g
             clip-path="url(#clipPath162)"
             id="g158"><path
               id="path174"
               style="fill:url(#linearGradient172);fill-opacity:1;fill-rule:nonzero;stroke:none"
               d="m 137,503 v 1 h -7 v 1 h -6 v 1 h -4 v 1 h -4 v 1 h -3 v 1 h -4 v 1 h -3 v 1 h -3 v 1 h -3 v 1 h -2 v 1 h -2 v 1 h -3 v 1 h -2 v 1 h -2 v 1 h -2 v 1 h -2 v 1 h -2 v 1 h -2 v 1 h -1 v 1 h -2 v 1 h -2 v 1 h -2 v 1 h -1 v 1 h -1 v 1 h -2 v 1 h -1 v 1 h -2 v 1 h -1 v 1 h -2 v 1 h -1 v 1 h -1 v 1 h -2 v 1 h -1 v 1 h -1 v 1 h -1 v 1 h -1 v 1 h -2 v 1 h -1 v 1 h -1 v 1 h -1 v 1 h -1 v 1 h -1 v 1 h -1 v 1 h -1 v 1 h -1 v 2 h -1 v 3 h -1 v 2 h -1 v 3 h -1 v 2 h -1 v 3 h -1 v 3 h -1 v 4 h -1 v 4 h -1 v 3 h -1 v 5 h -1 v 7 h -1 v 6 h -1 v 32 h 1 v 8 h 1 v 5 h 1 v 6 h 1 v 4 h 1 v 3 h 1 v 4 h 1 v 3 h 1 v 3 h 1 v 3 h 1 v 2 h 1 v 3 h 1 v 2 h 1 v 2 h 1 v 2 h 1 v 3 h 1 v 2 h 1 v 1 h 1 v 2 h 1 v 2 h 1 v 2 h 1 v 1 h 1 v 2 h 1 v 2 h 1 v 1 h 1 v 2 h 1 v 1 h 1 v 2 h 1 v 1 h 1 v 1 h 1 v 2 h 1 v 1 h 1 v 2 h 1 v 1 h 1 v 1 h 1 v 1 h 1 v 1 h 1 v 1 h 1 v 2 h 1 v 1 h 1 v 1 h 1 v 1 h 1 v 1 h 1 v 1 h 1 v 1 h 1 v 1 h 1 v 1 h 1 v 1 h 1 v 1 h 1 v 1 h 1 v 1 h 1 v 1 h 1 v 1 h 1 v 1 h 2 v 1 h 1 v 1 h 1 v 1 h 1 v 1 h 2 v 1 h 1 v 1 h 1 v 1 h 1 v 1 h 1 v 1 h 2 v 1 h 1 v 1 h 1 v 1 h 1 v 1 h 1 v 1 h 1 v 1 h 1 v 1 h 2 v 1 h 1 v 1 h 1 v 1 h 1 v 1 h 1 v 1 h 1 v 1 h 1 v 1 h 1 v 1 h 1 v 1 h 1 v 1 h 1 v 1 h 1 v 1 h 1 v 1 h 1 v 1 h 1 v 1 h 1 v 1 h 1 v 1 h 1 v 1 h 1 v 1 h 1 v 1 h 1 v 1 h 1 v 1 h 1 v 1 h 1 v 1 h 1 v 1 h 1 v 1 h 1 v 1 h 1 v 1 h 1 v 1 h 1 v 1 h 1 v 1 h 1 v 1 h 1 v 1 h 1 v 1 h 1 v 1 h 1 v 2 h 1 v 1 h 1 v 1 h 1 v 1 h 1 v 1 h 1 v 1 h 1 v 1 h 1 v 2 h 1 v 1 h 1 v 1 h 1 v 1 h 1 v 1 h 1 v 1 h 1 v 1 h 1 v 2 h 1 v 1 h 1 v 1 h 1 v 1 h 1 v 2 h 1 v 1 h 1 v 1 h 1 v 1 h 1 v 2 h 1 v 1 h 1 v 1 h 1 v 1 h 1 v 2 h 1 v 1 h 1 v 1 h 1 v 1 h 1 v 2 h 1 v 1 h 1 v 1 h 1 v 2 h 1 v 1 h 1 v 2 h 1 v 1 h 1 v 1 h 1 v 2 h 1 v 1 h 1 v 1 h 1 v 2 h 1 v 1 h 1 v 2 h 1 v 1 h 1 v 2 h 1 v 1 h 1 v 2 h 1 v 1 h 1 v 2 h 1 v 1 h 1 v 2 h 1 v 1 h 1 v 2 h 1 v 1 h 1 v 2 h 1 v 1 h 1 v 2 h 1 v 1 h 1 v 2 h 1 v 2 h 1 v 1 h 1 v 2 h 1 v 1 h 1 v 2 h 1 v 2 h 1 v 2 h 1 v 1 h 1 v 2 h 1 v 1 h 1 v 2 h 1 v 1 h 1 v 2 h 1 v 1 h 1 v 2 h 1 v 2 h 1 v 1 h 1 v 2 h 1 v 1 h 1 v 2 h 1 v 1 h 1 v 2 h 1 v 1 h 1 v 2 h 1 v 2 h 1 v 2 h 1 v 2 h 1 v 2 h 1 v 1 h 1 v 2 h 1 v 3 h 1 v 2 h 1 v 2 h 1 v 2 h 1 v 2 h 1 v 2 h 1 v 1 h 1 v 2 h 1 v 1 h 1 v 2 h 1 v 2 h 1 v 2 h 1 v 2 h 1 v 2 h 1 v 1 h 1 v 2 h 1 v 2 h 1 v 2 h 1 v 2 h 1 v 2 h 1 v 2 h 1 v 3 h 1 v 2 h 1 v 2 h 1 v 3 h 1 v 2 h 1 v 2 h 1 v 3 h 1 v 3 h 1 v 3 h 1 v 2 h 1 v 3 h 1 v 3 h 1 v 3 h 1 v 4 h 1 v 3 h 1 v 4 h 1 v 4 h 1 v 3 h 1 v 5 h 1 v 5 h 1 v 5 h 1 v 5 h 1 v 6 h 1 v 8 h 1 v 7 h 1 v 12 h 1 v 5 h 1 v 3 h 1 v 4 h 1 v 3 h 1 v 3 h 1 v 3 h 1 v 2 h 1 v 3 h 1 v 3 h 1 v 2 h 1 v 2 h 1 v 2 h 1 v 2 h 1 v 1 h 1 v 2 h 1 v 2 h 1 v 2 h 1 v 2 h 1 v 1 h 1 v 2 h 1 v 1 h 1 v 2 h 1 v 1 h 1 v 2 h 1 v 1 h 1 v 2 h 1 v 1 h 1 v 1 h 1 v 1 h 1 v 2 h 1 v 1 h 1 v 1 h 1 v 1 h 1 v 1 h 1 v 2 h 1 v 1 h 1 v 1 h 1 v 1 h 1 v 1 h 1 v 1 h 1 v 1 h 1 v 1 h 1 v 1 h 1 v 1 h 1 v 1 h 1 v 1 h 1 v 1 h 1 v 1 h 2 v 1 h 1 v 1 h 1 v 1 h 1 v 1 h 2 v 1 h 1 v 1 h 1 v 1 h 1 v 1 h 2 v 1 h 1 v 1 h 1 v 1 h 2 v 1 h 1 v 1 h 2 v 1 h 1 v 1 h 2 v 1 h 1 v 1 h 2 v 1 h 1 v 1 h 2 v 1 h 2 v 1 h 2 v 1 h 2 v 1 h 2 v 1 h 2 v 1 h 2 v 1 h 2 v 1 h 2 v 1 h 3 v 1 h 3 v 1 h 3 v 1 h 2 v 1 h 3 v 1 h 3 v 1 h 4 v 1 h 4 v 1 h 4 v 1 h 5 v 1 h 8 v 1 h 8 v 1 h 20 v -1 h 10 v -1 h 7 v -1 h 5 v -1 h 5 v -1 h 4 v -1 h 4 v -1 h 3 v -1 h 3 v -1 h 3 v -1 h 3 v -1 h 2 v -1 h 3 v -1 h 3 v -1 h 3 v -1 h 3 v -1 h 3 v -1 h 3 v -1 h 4 v -1 h 3 v -1 h 3 v -1 h 3 v -1 h 4 v -1 h 3 v -1 h 4 v -1 h 4 v -1 h 4 v -1 h 5 v -1 h 4 v -1 h 5 v -1 h 4 v -1 h 1 v -1 h 1 v -1 h 1 v -1 h 1 v -2 h 1 v -1 h 1 v -2 h 1 v -2 h 1 v -1 h 1 v -2 h 1 v -2 h 1 v -1 h 1 v -2 h 1 v -2 h 1 v -2 h 1 v -2 h 1 v -3 h 1 v -2 h 1 v -2 h 1 v -3 h 1 v -2 h 1 v -3 h 1 v -3 h 1 v -4 h 1 v -3 h 1 v -4 h 1 v -4 h 1 v -5 h 1 v -6 h 1 v -9 h 1 v -26 h -1 v -10 h -1 v -6 h -1 v -5 h -1 v -4 h -1 v -4 h -1 v -3 h -1 v -3 h -1 v -4 h -1 v -2 h -1 v -3 h -1 v -2 h -1 v -3 h -1 v -2 h -2 v -1 h -4 v -1 h -4 v -1 h -4 v -1 h -3 v -1 h -4 v -1 h -3 v -1 h -3 v -1 h -3 v -1 h -3 v -1 h -3 v -1 h -3 v -1 h -3 v -1 h -3 v -1 h -3 v -1 h -3 v -1 h -2 v -1 h -2 v -1 h -3 v -1 h -2 v -1 h -3 v -1 h -2 v -1 h -2 v -1 h -3 v -1 h -2 v -1 h -3 v -1 h -2 v -1 h -2 v -1 h -2 v -1 h -2 v -1 h -2 v -1 h -2 v -1 h -2 v -1 h -2 v -1 h -2 v -1 h -2 v -1 h -1 v -1 h -2 v -1 h -2 v -1 h -2 v -1 h -2 v -1 h -2 v -1 h -1 v -1 h -2 v -1 h -2 v -1 h -1 v -1 h -2 v -1 h -2 v -1 h -1 v -1 h -2 v -1 h -2 v -1 h -1 v -1 h -2 v -1 h -2 v -1 h -1 v -1 h -2 v -1 h -1 v -1 h -2 v -1 h -1 v -1 h -1 v -1 h -2 v -1 h -1 v -1 h -2 v -1 h -1 v -1 h -1 v -1 h -2 v -1 h -1 v -1 h -2 v -1 h -1 v -1 h -1 v -1 h -2 v -1 h -1 v -1 h -2 v -1 h -1 v -1 h -1 v -1 h -1 v -1 h -1 v -1 h -2 v -1 h -1 v -1 h -1 v -1 h -1 v -1 h -1 v -1 h -2 v -1 h -1 v -1 h -1 v -1 h -1 v -1 h -1 v -1 h -2 v -1 h -1 v -1 h -1 v -1 h -1 v -1 h -1 v -1 h -1 v -1 h -1 v -1 h -2 v -1 h -1 v -1 h -1 v -1 h -1 v -1 h -1 v -1 h -1 v -1 h -1 v -1 h -1 v -1 h -1 v -1 h -1 v -1 h -1 v -1 h -1 v -1 h -1 v -1 h -1 v -1 h -1 v -1 h -1 v -1 h -1 v -1 h -1 v -1 h -1 v -1 h -1 v -1 h -1 v -1 h -1 v -1 h -1 v -1 h -1 v -1 h -1 v -1 h -1 v -1 h -1 v -1 h -1 v -2 h -1 v -1 h -1 v -1 h -1 v -1 h -1 v -1 h -1 v -1 h -1 v -1 h -1 v -2 h -1 v -1 h -1 v -1 h -1 v -1 h -1 v -2 h -1 v -1 h -1 v -1 h -1 v -1 h -1 v -2 h -1 v -1 h -1 v -1 h -1 v -1 h -1 v -2 h -1 v -1 h -1 v -1 h -1 v -2 h -1 v -1 h -1 v -1 h -1 v -2 h -1 v -1 h -1 v -2 h -1 v -1 h -1 v -1 h -1 v -2 h -1 v -1 h -1 v -2 h -1 v -1 h -1 v -2 h -1 v -1 h -1 v -2 h -1 v -1 h -1 v -2 h -1 v -1 h -1 v -2 h -1 v -1 h -1 v -2 h -1 v -2 h -1 v -1 h -1 v -2 h -1 v -2 h -1 v -2 h -1 v -1 h -1 v -2 h -1 v -2 h -1 v -2 h -1 v -1 h -1 v -2 h -1 v -2 h -1 v -2 h -1 v -2 h -1 v -2 h -1 v -2 h -1 v -2 h -1 v -2 h -1 v -2 h -1 v -2 h -1 v -2 h -1 v -3 h -1 v -2 h -1 v -2 h -1 v -2 h -1 v -2 h -1 v -2 h -1 v -3 h -1 v -3 h -1 v -2 h -1 v -3 h -1 v -3 h -1 v -2 h -1 v -3 h -1 v -3 h -1 v -2 h -1 v -3 h -1 v -3 h -1 v -2 h -1 v -3 h -1 v -3 h -1 v -4 h -1 v -4 h -1 v -3 h -1 v -4 h -1 v -4 h -1 v -4 h -1 v -4 h -1 v -3 h -1 v -4 h -1 v -5 h -1 v -6 h -1 v -6 h -1 v -6 h -1 v -6 h -1 v -7 h -1 v -8 h -1 v -15 h -1 v -15 h -1 v -10 h 1 v -32 h 1 v -8 h 1 v -8 h 1 v -5 h -1 v -1 h -1 v -1 h -1 v -1 h -1 v -1 h -1 v -1 h -1 v -1 h -1 v -1 h -1 v -1 h -1 v -1 h -1 v -1 h -2 v -1 h -1 v -1 h -1 v -1 h -1 v -1 h -1 v -1 h -2 v -1 h -1 v -1 h -1 v -1 h -2 v -1 h -1 v -1 h -2 v -1 h -1 v -1 h -1 v -1 h -2 v -1 h -1 v -1 h -2 v -1 h -2 v -1 h -2 v -1 h -1 v -1 h -2 v -1 h -2 v -1 h -2 v -1 h -2 v -1 h -2 v -1 h -2 v -1 h -3 v -1 h -2 v -1 h -2 v -1 h -3 v -1 h -2 v -1 h -4 v -1 h -3 v -1 h -3 v -1 h -3 v -1 h -5 v -1 h -5 v -1 h -5 v -1 h -8 v -1" /></g></g></g><g
         id="g176"><g
           clip-path="url(#clipPath182)"
           id="g178"><g
             clip-path="url(#clipPath188)"
             id="g184"><path
               id="path200"
               style="fill:url(#linearGradient198);fill-opacity:1;fill-rule:nonzero;stroke:none"
               d="m 389,894 v 1 h -5 v 1 h -3 v 1 h -4 v 1 h -4 v 1 h -3 v 1 h -3 v 1 h -2 v 1 h -3 v 1 h -2 v 1 h -3 v 1 h -2 v 1 h -2 v 1 h -2 v 1 h -2 v 1 h -2 v 1 h -2 v 1 h -2 v 1 h -2 v 1 h -1 v 1 h -2 v 1 h -1 v 1 h -2 v 1 h -2 v 1 h -1 v 1 h -2 v 1 h -1 v 1 h -1 v 1 h -2 v 1 h -1 v 1 h -1 v 1 h -2 v 1 h -1 v 1 h -1 v 1 h -1 v 1 h -2 v 1 h -1 v 1 h -1 v 1 h -1 v 1 h -1 v 1 h -1 v 1 h -1 v 1 h -1 v 1 h -1 v 1 h -1 v 1 h -1 v 1 h -1 v 1 h -1 v 1 h -1 v 1 h -1 v 1 h -1 v 2 h -1 v 1 h -1 v 1 h -1 v 1 h -1 v 1 h -1 v 1 h -1 v 2 h -1 v 1 h -1 v 2 h -1 v 1 h -1 v 1 h -1 v 2 h -1 v 1 h -1 v 2 h -1 v 1 h -1 v 2 h -1 v 1 h -1 v 2 h -1 v 2 h -1 v 2 h -1 v 1 h -1 v 2 h -1 v 2 h -1 v 2 h -1 v 2 h -1 v 3 h -1 v 2 h -1 v 3 h -1 v 2 h -1 v 3 h -1 v 3 h -1 v 3 h -1 v 3 h -1 v 4 h -1 v 3 h 1 v 3 h 1 v 4 h 1 v 5 h 1 v 4 h 1 v 4 h 1 v 4 h 1 v 5 h 1 v 4 h 1 v 5 h 1 v 5 h 1 v 5 h 1 v 3 h 1 v 4 h 1 v 3 h 1 v 3 h 1 v 3 h 1 v 2 h 1 v 3 h 1 v 3 h 1 v 2 h 1 v 2 h 1 v 2 h 1 v 2 h 1 v 1 h 1 v 2 h 1 v 2 h 1 v 2 h 1 v 2 h 1 v 1 h 1 v 2 h 1 v 1 h 1 v 2 h 1 v 1 h 1 v 2 h 1 v 1 h 1 v 2 h 1 v 1 h 1 v 1 h 1 v 1 h 1 v 2 h 1 v 1 h 1 v 1 h 1 v 1 h 1 v 1 h 1 v 2 h 1 v 1 h 1 v 1 h 1 v 1 h 1 v 1 h 1 v 1 h 1 v 1 h 1 v 1 h 1 v 1 h 1 v 1 h 1 v 1 h 1 v 1 h 1 v 1 h 1 v 1 h 2 v 1 h 1 v 1 h 1 v 1 h 1 v 1 h 2 v 1 h 1 v 1 h 1 v 1 h 1 v 1 h 2 v 1 h 1 v 1 h 1 v 1 h 2 v 1 h 1 v 1 h 2 v 1 h 1 v 1 h 2 v 1 h 1 v 1 h 2 v 1 h 1 v 1 h 2 v 1 h 2 v 1 h 2 v 1 h 2 v 1 h 2 v 1 h 2 v 1 h 2 v 1 h 2 v 1 h 2 v 1 h 3 v 1 h 3 v 1 h 3 v 1 h 2 v 1 h 3 v 1 h 3 v 1 h 4 v 1 h 4 v 1 h 4 v 1 h 5 v 1 h 8 v 1 h 8 v 1 h 20 v -1 h 10 v -1 h 7 v -1 h 5 v -1 h 5 v -1 h 4 v -1 h 4 v -1 h 3 v -1 h 3 v -1 h 3 v -1 h 3 v -1 h 2 v -1 h 3 v -1 h 3 v -1 h 3 v -1 h 3 v -1 h 3 v -1 h 3 v -1 h 4 v -1 h 3 v -1 h 3 v -1 h 3 v -1 h 4 v -1 h 3 v -1 h 4 v -1 h 4 v -1 h 4 v -1 h 5 v -1 h 4 v -1 h 5 v -1 h 4 v -1 h 5 v -1 h 4 v -1 h 4 v -1 h 6 v -1 h 4 v -1 h 4 v -1 h 3 v -1 h 4 v -1 h 4 v -1 h 5 v -1 h 5 v -1 h 5 v -1 h 7 v -1 h 9 v -1 h 11 v -1 h 46 v 1 h 11 v 1 h 9 v 1 h 12 v 1 h 23 v 1 h 10 v 1 h 11 v 1 h 10 v 1 h 8 v 1 h 5 v 1 h 5 v 1 h 5 v 1 h 6 v 1 h 5 v 1 h 5 v 1 h 5 v 1 h 5 v 1 h 4 v 1 h 3 v 1 h 4 v 1 h 3 v 1 h 4 v 1 h 3 v 1 h 4 v 1 h 3 v 1 h 4 v 1 h 3 v 1 h 3 v 1 h 2 v 1 h 3 v 1 h 3 v 1 h 4 v 1 h 3 v 1 h 4 v 1 h 5 v 1 h 5 v 1 h 6 v 1 h 11 v 1 h 22 v -1 h 9 v -1 h 7 v -1 h 5 v -1 h 4 v -1 h 4 v -1 h 3 v -1 h 4 v -1 h 3 v -1 h 2 v -1 h 3 v -1 h 2 v -1 h 3 v -1 h 2 v -1 h 2 v -1 h 2 v -1 h 2 v -1 h 2 v -1 h 2 v -1 h 2 v -1 h 2 v -1 h 2 v -1 h 1 v -1 h 2 v -1 h 2 v -1 h 1 v -1 h 1 v -1 h 2 v -1 h 1 v -1 h 2 v -1 h 1 v -1 h 2 v -1 h 1 v -1 h 1 v -1 h 1 v -1 h 1 v -1 h 1 v -1 h 2 v -1 h 1 v -1 h 1 v -1 h 1 v -1 h 1 v -1 h 1 v -1 h 1 v -1 h 1 v -1 h 1 v -1 h 1 v -1 h 1 v -1 h 1 v -1 h 1 v -1 h 1 v -1 h 1 v -1 h 1 v -1 h 1 v -1 h 1 v -2 h 1 v -1 h 1 v -1 h 1 v -2 h 1 v -1 h 1 v -1 h 1 v -2 h 1 v -1 h 1 v -1 h 1 v -2 h 1 v -1 h 1 v -2 h 1 v -2 h 1 v -1 h 1 v -2 h 1 v -2 h 1 v -1 h 1 v -2 h 1 v -2 h 1 v -2 h 1 v -2 h 1 v -3 h 1 v -2 h 1 v -2 h 1 v -2 h 1 v -5 h 1 v -10 h 1 v -22 h -1 v -11 h -1 v -6 h -1 v -6 h -1 v -3 h -1 v -4 h -1 v -4 h -1 v -3 h -1 v -3 h -1 v -3 h -1 v -2 h -1 v -3 h -1 v -3 h -1 v -2 h -1 v -2 h -1 v -2 h -1 v -2 h -1 v -2 h -1 v -2 h -1 v -2 h -1 v -2 h -1 v -1 h -1 v -2 h -1 v -1 h -1 v -2 h -1 v -1 h -1 v -2 h -1 v -1 h -1 v -2 h -1 v -1 h -1 v -1 h -1 v -2 h -1 v -1 h -1 v -1 h -1 v -2 h -1 v -1 h -1 v -1 h -1 v -1 h -1 v -1 h -1 v -1 h -1 v -1 h -1 v -1 h -1 v -2 h -1 v -1 h -1 v -1 h -1 v -1 h -1 v -1 h -1 v -1 h -1 v -1 h -1 v -1 h -2 v -1 h -1 v -1 h -1 v -1 h -1 v -1 h -1 v -1 h -1 v -1 h -2 v -1 h -1 v -1 h -1 v -1 h -1 v -1 h -2 v -1 h -1 v -1 h -2 v -1 h -1 v -1 h -2 v -1 h -1 v -1 h -1 v -1 h -2 v -1 h -2 v -1 h -2 v -1 h -1 v -1 h -2 v -1 h -2 v -1 h -2 v -1 h -2 v -1 h -2 v -1 h -2 v -1 h -3 v -1 h -2 v -1 h -2 v -1 h -3 v -1 h -3 v -1 h -3 v -1 h -3 v -1 h -3 v -1 h -4 v -1 h -5 v 1 h -2 v 1 h -1 v 1 h -1 v 1 h -1 v 1 h -1 v 1 h -1 v 1 h -1 v 1 h -1 v 1 h -2 v 1 h -1 v 1 h -1 v 1 h -1 v 1 h -1 v 1 h -1 v 1 h -1 v 1 h -2 v 1 h -1 v 1 h -1 v 1 h -2 v 1 h -1 v 1 h -1 v 1 h -2 v 1 h -1 v 1 h -1 v 1 h -1 v 1 h -2 v 1 h -1 v 1 h -1 v 1 h -2 v 1 h -1 v 1 h -1 v 1 h -2 v 1 h -1 v 1 h -2 v 1 h -1 v 1 h -2 v 1 h -1 v 1 h -2 v 1 h -1 v 1 h -2 v 1 h -1 v 1 h -2 v 1 h -1 v 1 h -1 v 1 h -2 v 1 h -2 v 1 h -1 v 1 h -2 v 1 h -2 v 1 h -1 v 1 h -2 v 1 h -2 v 1 h -2 v 1 h -1 v 1 h -2 v 1 h -2 v 1 h -2 v 1 h -2 v 1 h -2 v 1 h -2 v 1 h -1 v 1 h -2 v 1 h -2 v 1 h -2 v 1 h -3 v 1 h -2 v 1 h -2 v 1 h -2 v 1 h -2 v 1 h -3 v 1 h -2 v 1 h -2 v 1 h -2 v 1 h -2 v 1 h -2 v 1 h -3 v 1 h -3 v 1 h -2 v 1 h -3 v 1 h -3 v 1 h -2 v 1 h -3 v 1 h -3 v 1 h -3 v 1 h -2 v 1 h -3 v 1 h -3 v 1 h -4 v 1 h -3 v 1 h -3 v 1 h -4 v 1 h -3 v 1 h -4 v 1 h -4 v 1 h -1 v 1 h -2 v 1 h -4 v 1 h -6 v 1 h -5 v 1 h -6 v 1 h -5 v 1 h -6 v 1 h -8 v 1 h -9 v 1 h -10 v 1 h -12 v 1 h -40 v -1 h -11 v -1 h -12 v -1 h -9 v -1 h -6 v -1 h -7 v -1 h -6 v -1 h -6 v -1 h -5 v -1 h -3 v -1 h -2 v -1 h -5 v -1 h -3 v -1 h -4 v -1 h -4 v -1 h -4 v -1 h -3 v -1 h -4 v -1 h -3 v -1 h -3 v -1 h -3 v -1 h -3 v -1 h -3 v -1 h -3 v -1 h -3 v -1 h -3 v -1 h -3 v -1 h -3 v -1 h -2 v -1 h -2 v -1 h -3 v -1 h -2 v -1 h -3 v -1 h -2 v -1 h -2 v -1 h -3 v -1 h -2 v -1 h -3 v -1 h -2 v -1 h -2 v -1 h -2 v -1 h -2 v -1 h -2 v -1 h -2 v -1 h -2 v -1 h -2 v -1 h -2 v -1 h -2 v -1 h -1 v -1 h -2 v -1 h -2 v -1 h -2 v -1 h -2 v -1 h -2 v -1 h -1 v -1 h -2 v -1 h -2 v -1 h -1 v -1 h -2 v -1 h -2 v -1 h -1 v -1 h -2 v -1 h -2 v -1 h -1 v -1 h -2 v -1 h -2 v -1 h -1 v -1 h -2 v -1 h -1 v -1 h -2 v -1 h -1 v -1 h -1 v -1 h -2 v -1 h -1 v -1 h -2 v -1 h -1 v -1 h -1 v -1 h -2 v -1 h -1 v -1 h -2 v -1 h -1 v -1 h -1 v -1 h -2 v -1 h -1 v -1 h -2 v -1 h -1 v -1 h -1 v -1 h -1 v -1 h -1 v -1 h -2 v -1 h -1 v -1 h -1 v -1 h -1 v -1 h -1 v -1 h -2 v -1 h -1 v -1 h -1 v -1 h -1 v -1 h -1 v -1 h -2 v -1 h -1 v -1 h -1 v -1 h -1 v -1 h -1 v -1 h -1 v -1 h -1 v -1 h -2 v -1 h -1 v -1 h -1 v -1" /></g></g></g><path
         id="path202"
         style="fill:#83cb2e;fill-opacity:1;fill-rule:nonzero;stroke:none"
         d="M 1062.77,949.77 C 1016.8,873.652 917.828,849.215 841.711,895.188 765.594,941.16 741.156,1040.13 787.129,1116.25 c 45.973,76.11 144.945,100.55 221.061,54.58 76.12,-45.97 100.55,-144.94 54.58,-221.06" /><path
         id="path204"
         style="fill:#83cb2e;fill-opacity:1;fill-rule:nonzero;stroke:none"
         d="m 1165.56,431.551 c -88.91,1.66 -159.64,75.07 -157.98,163.98 1.65,88.903 75.07,159.633 163.97,157.981 88.91,-1.657 159.64,-75.071 157.98,-163.981 -1.65,-88.902 -75.07,-159.633 -163.97,-157.98" /><path
         id="path206"
         style="fill:#83cb2e;fill-opacity:1;fill-rule:nonzero;stroke:none"
         d="m 768.551,82.9805 c -43.106,77.7815 -15,175.7695 62.773,218.8785 77.774,43.102 175.766,15 218.876,-62.769 43.11,-77.781 15,-175.7697 -62.774,-218.8791 C 909.652,-22.8984 811.66,5.21094 768.551,82.9805" /><path
         id="path208"
         style="fill:#83cb2e;fill-opacity:1;fill-rule:nonzero;stroke:none"
         d="m 267.988,251.961 c 45.719,76.269 144.606,101.027 220.875,55.32 C 565.137,261.559 589.902,162.672 544.188,86.3984 498.473,10.1289 399.582,-14.6406 323.313,31.0781 247.043,76.8008 222.273,175.691 267.988,251.961" /><path
         id="path210"
         style="fill:#83cb2e;fill-opacity:1;fill-rule:nonzero;stroke:none"
         d="M 163.465,769.824 C 252.375,768.469 323.352,695.289 321.996,606.379 320.641,517.469 247.461,446.488 158.551,447.852 69.6406,449.199 -1.33594,522.379 0.0195313,611.289 1.375,700.203 74.5547,771.18 163.465,769.824" /><path
         id="path212"
         style="fill:#83cb2e;fill-opacity:1;fill-rule:nonzero;stroke:none"
         d="m 559.297,1119.72 c 43.367,-77.63 15.594,-175.712 -62.035,-219.079 -77.629,-43.368 -175.719,-15.594 -219.086,62.035 -43.367,77.624 -15.59,175.714 62.039,219.084 77.629,43.37 175.715,15.59 219.082,-62.04" /></g></g></svg>